<svg width="635" height="70" viewBox="0 0 635 70" fill="none" xmlns="http://www.w3.org/2000/svg">
<rect x="189" width="446" height="24" fill="#F5D6AB"/>
<rect x="189" width="286" height="24" fill="#C66C49"/>
<path d="M0.648 50.932C0.648 50.74 0.75 50.644 0.954 50.644H11.07C11.274 50.644 11.376 50.74 11.376 50.932V52.336C11.376 52.504 11.28 52.588 11.088 52.588H7.632C7.56 52.588 7.506 52.6 7.47 52.624C7.446 52.648 7.434 52.696 7.434 52.768V63.694C7.434 63.898 7.344 64 7.164 64H5.022C4.854 64 4.77 63.904 4.77 63.712V52.804C4.77 52.72 4.752 52.666 4.716 52.642C4.692 52.606 4.644 52.588 4.572 52.588H0.954C0.846 52.588 0.768 52.57 0.72 52.534C0.672 52.498 0.648 52.432 0.648 52.336V50.932ZM15.4015 64.18C14.4775 64.18 13.6555 63.976 12.9355 63.568C12.2155 63.148 11.6575 62.566 11.2615 61.822C10.8655 61.078 10.6675 60.232 10.6675 59.284C10.6675 58.312 10.8715 57.448 11.2795 56.692C11.6875 55.924 12.2515 55.33 12.9715 54.91C13.6915 54.49 14.5075 54.28 15.4195 54.28C16.3435 54.28 17.1655 54.496 17.8855 54.928C18.6055 55.348 19.1635 55.936 19.5595 56.692C19.9555 57.448 20.1535 58.306 20.1535 59.266C20.1535 60.214 19.9495 61.06 19.5415 61.804C19.1455 62.548 18.5875 63.13 17.8675 63.55C17.1475 63.97 16.3255 64.18 15.4015 64.18ZM15.4195 62.578C16.1875 62.578 16.7695 62.29 17.1655 61.714C17.5735 61.138 17.7775 60.31 17.7775 59.23C17.7775 58.138 17.5735 57.298 17.1655 56.71C16.7575 56.122 16.1755 55.828 15.4195 55.828C14.6635 55.828 14.0755 56.122 13.6555 56.71C13.2475 57.298 13.0435 58.138 13.0435 59.23C13.0435 60.31 13.2475 61.138 13.6555 61.714C14.0755 62.29 14.6635 62.578 15.4195 62.578ZM26.1769 64.18C25.2529 64.18 24.4309 63.976 23.7109 63.568C22.9909 63.148 22.4329 62.566 22.0369 61.822C21.6409 61.078 21.4429 60.232 21.4429 59.284C21.4429 58.312 21.6469 57.448 22.0549 56.692C22.4629 55.924 23.0269 55.33 23.7469 54.91C24.4669 54.49 25.2829 54.28 26.1949 54.28C27.1189 54.28 27.9409 54.496 28.6609 54.928C29.3809 55.348 29.9389 55.936 30.3349 56.692C30.7309 57.448 30.9289 58.306 30.9289 59.266C30.9289 60.214 30.7249 61.06 30.3169 61.804C29.9209 62.548 29.3629 63.13 28.6429 63.55C27.9229 63.97 27.1009 64.18 26.1769 64.18ZM26.1949 62.578C26.9629 62.578 27.5449 62.29 27.9409 61.714C28.3489 61.138 28.5529 60.31 28.5529 59.23C28.5529 58.138 28.3489 57.298 27.9409 56.71C27.5329 56.122 26.9509 55.828 26.1949 55.828C25.4389 55.828 24.8509 56.122 24.4309 56.71C24.0229 57.298 23.8189 58.138 23.8189 59.23C23.8189 60.31 24.0229 61.138 24.4309 61.714C24.8509 62.29 25.4389 62.578 26.1949 62.578ZM35.0443 63.604C35.0443 63.76 35.0143 63.868 34.9543 63.928C34.8943 63.976 34.7863 64 34.6303 64H33.0463C32.9143 64 32.8183 63.976 32.7583 63.928C32.7103 63.88 32.6863 63.796 32.6863 63.676L32.7403 50.95C32.7403 50.746 32.8303 50.644 33.0103 50.644H34.7923C34.9603 50.644 35.0443 50.74 35.0443 50.932V63.604ZM43.1594 56.818C42.9194 56.494 42.6074 56.236 42.2234 56.044C41.8394 55.852 41.3954 55.756 40.8914 55.756C40.3634 55.756 39.9254 55.864 39.5774 56.08C39.2414 56.296 39.0734 56.578 39.0734 56.926C39.0734 57.13 39.1574 57.316 39.3254 57.484C39.4934 57.64 39.7994 57.778 40.2434 57.898L42.3854 58.474C43.2854 58.702 43.9454 59.05 44.3654 59.518C44.7854 59.986 44.9954 60.544 44.9954 61.192C44.9954 61.804 44.8154 62.338 44.4554 62.794C44.1074 63.238 43.6154 63.58 42.9794 63.82C42.3554 64.06 41.6414 64.18 40.8374 64.18C39.8414 64.18 38.9714 64 38.2274 63.64C37.4834 63.268 36.9554 62.788 36.6434 62.2C36.5954 62.104 36.5714 62.038 36.5714 62.002C36.5714 61.93 36.6074 61.87 36.6794 61.822L37.7414 61.282C37.8254 61.234 37.8974 61.21 37.9574 61.21C38.0054 61.21 38.0594 61.24 38.1194 61.3C38.4074 61.708 38.7554 62.032 39.1634 62.272C39.5834 62.512 40.1234 62.632 40.7834 62.632C41.3954 62.632 41.8934 62.53 42.2774 62.326C42.6734 62.11 42.8714 61.816 42.8714 61.444C42.8714 61.192 42.7634 60.982 42.5474 60.814C42.3434 60.634 41.9834 60.478 41.4674 60.346L39.6314 59.914C38.7194 59.698 38.0474 59.374 37.6154 58.942C37.1954 58.51 36.9854 57.958 36.9854 57.286C36.9854 56.698 37.1414 56.176 37.4534 55.72C37.7774 55.264 38.2334 54.91 38.8214 54.658C39.4214 54.406 40.1174 54.28 40.9094 54.28C41.7614 54.28 42.5174 54.442 43.1774 54.766C43.8374 55.078 44.3234 55.48 44.6354 55.972C44.6954 56.068 44.7254 56.146 44.7254 56.206C44.7254 56.266 44.6954 56.314 44.6354 56.35L43.5194 56.908C43.4474 56.932 43.4054 56.944 43.3934 56.944C43.2974 56.944 43.2194 56.902 43.1594 56.818Z" fill="#333333"/>
<path d="M192.618 57.754C192.57 57.754 192.534 57.772 192.51 57.808C192.486 57.832 192.474 57.862 192.474 57.898V63.73C192.474 63.826 192.45 63.898 192.402 63.946C192.354 63.982 192.276 64 192.168 64H190.998C190.902 64 190.836 63.982 190.8 63.946C190.764 63.91 190.746 63.844 190.746 63.748V50.896C190.746 50.728 190.818 50.644 190.962 50.644H192.258C192.402 50.644 192.474 50.722 192.474 50.878V56.17C192.474 56.254 192.486 56.314 192.51 56.35C192.546 56.374 192.6 56.386 192.672 56.386H198.576C198.696 56.386 198.756 56.314 198.756 56.17V50.86C198.756 50.716 198.822 50.644 198.954 50.644H200.268C200.352 50.644 200.406 50.662 200.43 50.698C200.466 50.734 200.484 50.8 200.484 50.896V63.748C200.484 63.916 200.4 64 200.232 64H199.062C198.954 64 198.876 63.982 198.828 63.946C198.78 63.898 198.756 63.826 198.756 63.73V57.916C198.756 57.808 198.702 57.754 198.594 57.754H192.618ZM202.992 50.842C202.992 50.71 203.064 50.644 203.208 50.644H212.892C213.036 50.644 213.108 50.71 213.108 50.842V51.778C213.108 51.85 213.09 51.898 213.054 51.922C213.018 51.946 212.964 51.958 212.892 51.958H209.238C209.166 51.958 209.112 51.97 209.076 51.994C209.052 52.018 209.04 52.066 209.04 52.138V63.766C209.04 63.922 208.968 64 208.824 64H207.528C207.384 64 207.312 63.922 207.312 63.766V52.156C207.312 52.072 207.3 52.018 207.276 51.994C207.252 51.97 207.204 51.958 207.132 51.958H203.208C203.136 51.958 203.082 51.946 203.046 51.922C203.01 51.898 202.992 51.85 202.992 51.778V50.842ZM215.836 64C215.668 64 215.584 63.91 215.584 63.73V50.896C215.584 50.8 215.596 50.734 215.62 50.698C215.656 50.662 215.716 50.644 215.8 50.644H217.528C217.624 50.644 217.69 50.662 217.726 50.698C217.774 50.722 217.81 50.77 217.834 50.842L221.83 61.156C221.866 61.264 221.908 61.318 221.956 61.318C222.016 61.318 222.07 61.258 222.118 61.138L226.114 50.878C226.15 50.722 226.24 50.644 226.384 50.644H228.202C228.334 50.644 228.4 50.722 228.4 50.878V63.73C228.4 63.91 228.31 64 228.13 64H226.942C226.762 64 226.672 63.922 226.672 63.766V53.47C226.672 53.41 226.66 53.386 226.636 53.398C226.624 53.398 226.606 53.422 226.582 53.47L222.622 63.766C222.55 63.922 222.436 64 222.28 64H221.416C221.236 64 221.116 63.928 221.056 63.784L217.15 53.578C217.138 53.518 217.12 53.488 217.096 53.488C217.072 53.488 217.06 53.518 217.06 53.578V63.766C217.06 63.85 217.042 63.91 217.006 63.946C216.97 63.982 216.904 64 216.808 64H215.836ZM231.896 50.896C231.896 50.728 231.968 50.644 232.112 50.644H233.408C233.552 50.644 233.624 50.722 233.624 50.878V62.488C233.624 62.56 233.636 62.608 233.66 62.632C233.684 62.656 233.732 62.668 233.804 62.668H240.032C240.104 62.668 240.158 62.68 240.194 62.704C240.23 62.728 240.248 62.776 240.248 62.848V63.802C240.248 63.934 240.176 64 240.032 64H232.148C232.052 64 231.986 63.982 231.95 63.946C231.914 63.91 231.896 63.844 231.896 63.748V50.896ZM241.915 66.574C241.855 66.574 241.813 66.55 241.789 66.502C241.765 66.454 241.765 66.388 241.789 66.304L242.599 64.288C242.635 64.216 242.653 64.162 242.653 64.126C242.653 64.042 242.587 64 242.455 64H242.221C242.065 64 241.987 63.928 241.987 63.784V62.182C241.987 62.05 242.047 61.984 242.167 61.984H243.661C243.781 61.984 243.841 62.044 243.841 62.164V63.64C243.841 63.724 243.823 63.796 243.787 63.856L242.473 66.376C242.401 66.508 242.281 66.574 242.113 66.574H241.915ZM255.464 50.464C256.256 50.464 257.006 50.632 257.714 50.968C258.434 51.304 259.028 51.754 259.496 52.318C259.964 52.882 260.246 53.494 260.342 54.154L260.36 54.28C260.36 54.328 260.342 54.364 260.306 54.388C260.282 54.412 260.252 54.424 260.216 54.424L258.866 54.532H258.83C258.794 54.532 258.764 54.52 258.74 54.496C258.716 54.46 258.698 54.412 258.686 54.352C258.506 53.572 258.134 52.948 257.57 52.48C257.006 52.012 256.322 51.778 255.518 51.778C254.258 51.778 253.292 52.246 252.62 53.182C251.96 54.106 251.63 55.492 251.63 57.34C251.63 59.152 251.96 60.52 252.62 61.444C253.292 62.356 254.288 62.812 255.608 62.812C256.46 62.812 257.168 62.608 257.732 62.2C258.308 61.78 258.77 61.126 259.118 60.238C259.142 60.154 259.214 60.13 259.334 60.166L260.396 60.418C260.48 60.442 260.51 60.526 260.486 60.67C260.306 61.27 259.994 61.84 259.55 62.38C259.106 62.908 258.542 63.34 257.858 63.676C257.174 64.012 256.4 64.18 255.536 64.18C254.348 64.18 253.328 63.904 252.476 63.352C251.624 62.8 250.97 62.008 250.514 60.976C250.058 59.944 249.83 58.72 249.83 57.304C249.83 55.888 250.052 54.67 250.496 53.65C250.952 52.618 251.6 51.832 252.44 51.292C253.292 50.74 254.3 50.464 255.464 50.464ZM270.351 53.128C269.583 52.228 268.563 51.778 267.291 51.778C266.391 51.778 265.683 51.976 265.167 52.372C264.651 52.768 264.393 53.32 264.393 54.028C264.393 54.964 265.035 55.648 266.319 56.08L268.929 56.944C269.985 57.292 270.747 57.76 271.215 58.348C271.695 58.924 271.935 59.632 271.935 60.472C271.935 61.624 271.509 62.53 270.657 63.19C269.805 63.85 268.641 64.18 267.165 64.18C266.085 64.18 265.131 63.988 264.303 63.604C263.487 63.22 262.827 62.662 262.323 61.93C262.275 61.834 262.251 61.774 262.251 61.75C262.251 61.666 262.311 61.582 262.431 61.498L263.079 61.048C263.187 60.976 263.271 60.94 263.331 60.94C263.403 60.94 263.469 60.976 263.529 61.048C264.045 61.708 264.555 62.176 265.059 62.452C265.563 62.728 266.241 62.866 267.093 62.866C268.101 62.866 268.881 62.686 269.433 62.326C269.997 61.966 270.279 61.408 270.279 60.652C270.279 60.184 270.129 59.788 269.829 59.464C269.541 59.128 269.013 58.816 268.245 58.528L265.509 57.592C264.561 57.268 263.859 56.806 263.403 56.206C262.959 55.594 262.737 54.922 262.737 54.19C262.737 53.446 262.923 52.792 263.295 52.228C263.679 51.664 264.213 51.232 264.897 50.932C265.593 50.62 266.391 50.464 267.291 50.464C268.167 50.464 268.959 50.62 269.667 50.932C270.387 51.244 270.999 51.682 271.503 52.246C271.563 52.306 271.593 52.366 271.593 52.426C271.593 52.486 271.563 52.54 271.503 52.588L270.675 53.236C270.639 53.272 270.603 53.29 270.567 53.29C270.531 53.29 270.459 53.236 270.351 53.128ZM281.882 53.128C281.114 52.228 280.094 51.778 278.822 51.778C277.922 51.778 277.214 51.976 276.698 52.372C276.182 52.768 275.924 53.32 275.924 54.028C275.924 54.964 276.566 55.648 277.85 56.08L280.46 56.944C281.516 57.292 282.278 57.76 282.746 58.348C283.226 58.924 283.466 59.632 283.466 60.472C283.466 61.624 283.04 62.53 282.188 63.19C281.336 63.85 280.172 64.18 278.696 64.18C277.616 64.18 276.662 63.988 275.834 63.604C275.018 63.22 274.358 62.662 273.854 61.93C273.806 61.834 273.782 61.774 273.782 61.75C273.782 61.666 273.842 61.582 273.962 61.498L274.61 61.048C274.718 60.976 274.802 60.94 274.862 60.94C274.934 60.94 275 60.976 275.06 61.048C275.576 61.708 276.086 62.176 276.59 62.452C277.094 62.728 277.772 62.866 278.624 62.866C279.632 62.866 280.412 62.686 280.964 62.326C281.528 61.966 281.81 61.408 281.81 60.652C281.81 60.184 281.66 59.788 281.36 59.464C281.072 59.128 280.544 58.816 279.776 58.528L277.04 57.592C276.092 57.268 275.39 56.806 274.934 56.206C274.49 55.594 274.268 54.922 274.268 54.19C274.268 53.446 274.454 52.792 274.826 52.228C275.21 51.664 275.744 51.232 276.428 50.932C277.124 50.62 277.922 50.464 278.822 50.464C279.698 50.464 280.49 50.62 281.198 50.932C281.918 51.244 282.53 51.682 283.034 52.246C283.094 52.306 283.124 52.366 283.124 52.426C283.124 52.486 283.094 52.54 283.034 52.588L282.206 53.236C282.17 53.272 282.134 53.29 282.098 53.29C282.062 53.29 281.99 53.236 281.882 53.128ZM285.385 66.574C285.325 66.574 285.283 66.55 285.259 66.502C285.235 66.454 285.235 66.388 285.259 66.304L286.069 64.288C286.105 64.216 286.123 64.162 286.123 64.126C286.123 64.042 286.057 64 285.925 64H285.691C285.535 64 285.457 63.928 285.457 63.784V62.182C285.457 62.05 285.517 61.984 285.637 61.984H287.131C287.251 61.984 287.311 62.044 287.311 62.164V63.64C287.311 63.724 287.293 63.796 287.257 63.856L285.943 66.376C285.871 66.508 285.751 66.574 285.583 66.574H285.385ZM297.981 61.066C297.981 62.11 297.747 62.89 297.279 63.406C296.823 63.922 296.097 64.18 295.101 64.18C294.561 64.18 294.099 64.12 293.715 64C293.343 63.88 293.133 63.814 293.085 63.802C292.917 63.742 292.851 63.628 292.887 63.46L293.049 62.488C293.073 62.344 293.145 62.29 293.265 62.326C293.325 62.35 293.433 62.398 293.589 62.47C293.745 62.53 293.919 62.584 294.111 62.632C294.303 62.668 294.513 62.686 294.741 62.686C295.293 62.686 295.683 62.542 295.911 62.254C296.139 61.954 296.253 61.426 296.253 60.67V50.878C296.253 50.722 296.325 50.644 296.469 50.644H297.783C297.915 50.644 297.981 50.722 297.981 50.878V61.066ZM308.618 53.128C307.85 52.228 306.83 51.778 305.558 51.778C304.658 51.778 303.95 51.976 303.434 52.372C302.918 52.768 302.66 53.32 302.66 54.028C302.66 54.964 303.302 55.648 304.586 56.08L307.196 56.944C308.252 57.292 309.014 57.76 309.482 58.348C309.962 58.924 310.202 59.632 310.202 60.472C310.202 61.624 309.776 62.53 308.924 63.19C308.072 63.85 306.908 64.18 305.432 64.18C304.352 64.18 303.398 63.988 302.57 63.604C301.754 63.22 301.094 62.662 300.59 61.93C300.542 61.834 300.518 61.774 300.518 61.75C300.518 61.666 300.578 61.582 300.698 61.498L301.346 61.048C301.454 60.976 301.538 60.94 301.598 60.94C301.67 60.94 301.736 60.976 301.796 61.048C302.312 61.708 302.822 62.176 303.326 62.452C303.83 62.728 304.508 62.866 305.36 62.866C306.368 62.866 307.148 62.686 307.7 62.326C308.264 61.966 308.546 61.408 308.546 60.652C308.546 60.184 308.396 59.788 308.096 59.464C307.808 59.128 307.28 58.816 306.512 58.528L303.776 57.592C302.828 57.268 302.126 56.806 301.67 56.206C301.226 55.594 301.004 54.922 301.004 54.19C301.004 53.446 301.19 52.792 301.562 52.228C301.946 51.664 302.48 51.232 303.164 50.932C303.86 50.62 304.658 50.464 305.558 50.464C306.434 50.464 307.226 50.62 307.934 50.932C308.654 51.244 309.266 51.682 309.77 52.246C309.83 52.306 309.86 52.366 309.86 52.426C309.86 52.486 309.83 52.54 309.77 52.588L308.942 53.236C308.906 53.272 308.87 53.29 308.834 53.29C308.798 53.29 308.726 53.236 308.618 53.128ZM312.122 66.574C312.062 66.574 312.02 66.55 311.996 66.502C311.972 66.454 311.972 66.388 311.996 66.304L312.806 64.288C312.842 64.216 312.86 64.162 312.86 64.126C312.86 64.042 312.794 64 312.662 64H312.428C312.272 64 312.194 63.928 312.194 63.784V62.182C312.194 62.05 312.254 61.984 312.374 61.984H313.868C313.988 61.984 314.048 62.044 314.048 62.164V63.64C314.048 63.724 314.03 63.796 313.994 63.856L312.68 66.376C312.608 66.508 312.488 66.574 312.32 66.574H312.122ZM320.829 64C320.769 64 320.715 63.982 320.667 63.946C320.631 63.898 320.613 63.844 320.613 63.784V50.896C320.613 50.728 320.691 50.644 320.847 50.644H325.005C326.601 50.644 327.831 50.944 328.695 51.544C329.571 52.132 330.009 52.984 330.009 54.1C330.009 54.832 329.817 55.444 329.433 55.936C329.049 56.428 328.455 56.818 327.651 57.106C327.603 57.118 327.579 57.142 327.579 57.178C327.579 57.214 327.603 57.238 327.651 57.25C329.439 57.706 330.333 58.768 330.333 60.436C330.333 61.624 329.889 62.518 329.001 63.118C328.113 63.706 326.823 64 325.131 64H320.829ZM325.239 56.602C326.079 56.602 326.793 56.422 327.381 56.062C327.969 55.702 328.263 55.114 328.263 54.298C328.263 53.506 327.975 52.912 327.399 52.516C326.823 52.108 326.025 51.904 325.005 51.904H322.575C322.419 51.904 322.341 51.976 322.341 52.12V56.368C322.341 56.524 322.395 56.602 322.503 56.602H325.239ZM325.041 62.74C326.217 62.74 327.093 62.548 327.669 62.164C328.245 61.78 328.533 61.186 328.533 60.382C328.533 59.542 328.233 58.918 327.633 58.51C327.033 58.102 326.235 57.898 325.239 57.898H322.593C322.497 57.898 322.431 57.916 322.395 57.952C322.359 57.976 322.341 58.03 322.341 58.114V62.488C322.341 62.584 322.353 62.65 322.377 62.686C322.401 62.722 322.443 62.74 322.503 62.74H325.041ZM336.835 64.18C335.935 64.18 335.137 63.976 334.441 63.568C333.757 63.148 333.223 62.566 332.839 61.822C332.467 61.078 332.281 60.232 332.281 59.284C332.281 58.312 332.473 57.448 332.857 56.692C333.253 55.936 333.793 55.348 334.477 54.928C335.173 54.496 335.965 54.28 336.853 54.28C337.741 54.28 338.527 54.496 339.211 54.928C339.907 55.348 340.441 55.936 340.813 56.692C341.197 57.448 341.389 58.306 341.389 59.266C341.389 60.214 341.197 61.06 340.813 61.804C340.429 62.548 339.889 63.13 339.193 63.55C338.509 63.97 337.723 64.18 336.835 64.18ZM336.871 63.046C337.807 63.046 338.533 62.71 339.049 62.038C339.577 61.354 339.841 60.418 339.841 59.23C339.841 58.054 339.571 57.124 339.031 56.44C338.503 55.744 337.777 55.396 336.853 55.396C335.917 55.396 335.179 55.744 334.639 56.44C334.099 57.124 333.829 58.054 333.829 59.23C333.829 60.406 334.099 61.336 334.639 62.02C335.179 62.704 335.923 63.046 336.871 63.046ZM347.611 64.18C346.711 64.18 345.913 63.976 345.217 63.568C344.533 63.148 343.999 62.566 343.615 61.822C343.243 61.078 343.057 60.232 343.057 59.284C343.057 58.312 343.249 57.448 343.633 56.692C344.029 55.936 344.569 55.348 345.253 54.928C345.949 54.496 346.741 54.28 347.629 54.28C348.517 54.28 349.303 54.496 349.987 54.928C350.683 55.348 351.217 55.936 351.589 56.692C351.973 57.448 352.165 58.306 352.165 59.266C352.165 60.214 351.973 61.06 351.589 61.804C351.205 62.548 350.665 63.13 349.969 63.55C349.285 63.97 348.499 64.18 347.611 64.18ZM347.647 63.046C348.583 63.046 349.309 62.71 349.825 62.038C350.353 61.354 350.617 60.418 350.617 59.23C350.617 58.054 350.347 57.124 349.807 56.44C349.279 55.744 348.553 55.396 347.629 55.396C346.693 55.396 345.955 55.744 345.415 56.44C344.875 57.124 344.605 58.054 344.605 59.23C344.605 60.406 344.875 61.336 345.415 62.02C345.955 62.704 346.699 63.046 347.647 63.046ZM356.804 55.576C356.708 55.576 356.66 55.63 356.66 55.738V61.444C356.66 61.984 356.75 62.356 356.93 62.56C357.11 62.764 357.404 62.866 357.812 62.866H359.054C359.186 62.866 359.252 62.932 359.252 63.064L359.234 63.676C359.234 63.796 359.162 63.874 359.018 63.91C358.706 63.97 358.142 64 357.326 64C356.57 64 356.018 63.826 355.67 63.478C355.322 63.118 355.148 62.554 355.148 61.786V55.774C355.148 55.642 355.088 55.576 354.968 55.576H353.528C353.396 55.576 353.33 55.516 353.33 55.396V54.64C353.33 54.52 353.39 54.46 353.51 54.46H355.04C355.124 54.46 355.166 54.412 355.166 54.316L355.364 51.454C355.364 51.298 355.43 51.22 355.562 51.22H356.462C356.606 51.22 356.678 51.304 356.678 51.472V54.316C356.678 54.412 356.726 54.46 356.822 54.46H359.09C359.222 54.46 359.288 54.514 359.288 54.622V55.396C359.288 55.516 359.222 55.576 359.09 55.576H356.804ZM366.969 56.566C366.717 56.194 366.369 55.9 365.925 55.684C365.493 55.456 364.989 55.342 364.413 55.342C363.753 55.342 363.213 55.486 362.793 55.774C362.373 56.05 362.163 56.416 362.163 56.872C362.163 57.148 362.265 57.4 362.469 57.628C362.685 57.844 363.069 58.036 363.621 58.204L365.907 58.888C366.699 59.104 367.287 59.428 367.671 59.86C368.055 60.28 368.247 60.784 368.247 61.372C368.247 61.924 368.079 62.416 367.743 62.848C367.407 63.268 366.945 63.598 366.357 63.838C365.769 64.066 365.103 64.18 364.359 64.18C363.435 64.18 362.613 64 361.893 63.64C361.173 63.268 360.663 62.788 360.363 62.2C360.327 62.14 360.309 62.092 360.309 62.056C360.309 61.996 360.339 61.948 360.399 61.912L361.101 61.516C361.221 61.444 361.311 61.45 361.371 61.534C362.019 62.566 363.021 63.082 364.377 63.082C365.085 63.07 365.667 62.926 366.123 62.65C366.591 62.362 366.825 61.99 366.825 61.534C366.825 61.198 366.687 60.916 366.411 60.688C366.135 60.46 365.685 60.256 365.061 60.076L363.207 59.554C362.331 59.326 361.701 59.008 361.317 58.6C360.945 58.192 360.759 57.694 360.759 57.106C360.759 56.554 360.909 56.062 361.209 55.63C361.521 55.198 361.953 54.868 362.505 54.64C363.069 54.4 363.711 54.28 364.431 54.28C365.223 54.28 365.931 54.43 366.555 54.73C367.191 55.03 367.677 55.438 368.013 55.954C368.097 56.074 368.091 56.158 367.995 56.206L367.239 56.62C367.191 56.644 367.155 56.656 367.131 56.656C367.083 56.656 367.029 56.626 366.969 56.566ZM372.976 55.576C372.88 55.576 372.832 55.63 372.832 55.738V61.444C372.832 61.984 372.922 62.356 373.102 62.56C373.282 62.764 373.576 62.866 373.984 62.866H375.226C375.358 62.866 375.424 62.932 375.424 63.064L375.406 63.676C375.406 63.796 375.334 63.874 375.19 63.91C374.878 63.97 374.314 64 373.498 64C372.742 64 372.19 63.826 371.842 63.478C371.494 63.118 371.32 62.554 371.32 61.786V55.774C371.32 55.642 371.26 55.576 371.14 55.576H369.7C369.568 55.576 369.502 55.516 369.502 55.396V54.64C369.502 54.52 369.562 54.46 369.682 54.46H371.212C371.296 54.46 371.338 54.412 371.338 54.316L371.536 51.454C371.536 51.298 371.602 51.22 371.734 51.22H372.634C372.778 51.22 372.85 51.304 372.85 51.472V54.316C372.85 54.412 372.898 54.46 372.994 54.46H375.262C375.394 54.46 375.46 54.514 375.46 54.622V55.396C375.46 55.516 375.394 55.576 375.262 55.576H372.976ZM377.669 64C377.501 64 377.417 63.922 377.417 63.766V54.694C377.417 54.538 377.483 54.46 377.615 54.46H378.659C378.791 54.46 378.857 54.526 378.857 54.658V55.828C378.857 55.9 378.875 55.942 378.911 55.954C378.959 55.966 379.007 55.942 379.055 55.882C379.967 54.814 380.897 54.28 381.845 54.28C382.265 54.28 382.475 54.358 382.475 54.514V55.594C382.475 55.714 382.421 55.762 382.313 55.738C382.097 55.702 381.827 55.684 381.503 55.684C381.155 55.684 380.777 55.786 380.369 55.99C379.961 56.194 379.619 56.458 379.343 56.782C379.067 57.106 378.929 57.436 378.929 57.772V63.73C378.929 63.91 378.839 64 378.659 64H377.669ZM389.799 62.848C388.875 63.736 387.807 64.18 386.595 64.18C385.659 64.18 384.921 63.946 384.381 63.478C383.853 62.998 383.589 62.362 383.589 61.57C383.589 60.61 383.991 59.854 384.795 59.302C385.611 58.75 386.787 58.426 388.323 58.33L389.727 58.222C389.931 58.198 390.033 58.108 390.033 57.952V57.466C390.033 56.818 389.829 56.308 389.421 55.936C389.025 55.552 388.485 55.36 387.801 55.36C386.745 55.36 385.881 55.84 385.209 56.8C385.173 56.86 385.137 56.902 385.101 56.926C385.065 56.938 385.017 56.932 384.957 56.908L383.985 56.584C383.925 56.56 383.895 56.518 383.895 56.458C383.895 56.422 383.913 56.368 383.949 56.296C384.309 55.66 384.819 55.168 385.479 54.82C386.151 54.46 386.943 54.28 387.855 54.28C389.031 54.28 389.931 54.556 390.555 55.108C391.179 55.648 391.491 56.398 391.491 57.358V63.73C391.491 63.838 391.473 63.91 391.437 63.946C391.401 63.982 391.335 64 391.239 64H390.339C390.195 64 390.111 63.904 390.087 63.712L390.051 62.884C390.039 62.8 390.009 62.758 389.961 62.758C389.913 62.758 389.859 62.788 389.799 62.848ZM390.033 59.428C390.033 59.236 389.943 59.14 389.763 59.14L388.593 59.248C387.477 59.32 386.613 59.536 386.001 59.896C385.401 60.256 385.101 60.754 385.101 61.39C385.101 61.906 385.281 62.314 385.641 62.614C386.013 62.914 386.505 63.064 387.117 63.064C387.489 63.064 387.855 62.998 388.215 62.866C388.575 62.734 388.893 62.554 389.169 62.326C389.445 62.11 389.655 61.882 389.799 61.642C389.955 61.39 390.033 61.15 390.033 60.922V59.428ZM395.358 54.46C395.526 54.46 395.61 54.55 395.61 54.73V55.486C395.61 55.594 395.64 55.648 395.7 55.648C395.736 55.648 395.784 55.618 395.844 55.558C396.096 55.306 396.318 55.102 396.51 54.946C396.702 54.79 396.984 54.64 397.356 54.496C397.728 54.352 398.166 54.28 398.67 54.28C399.426 54.28 400.098 54.46 400.686 54.82C401.286 55.18 401.754 55.72 402.09 56.44C402.438 57.16 402.612 58.042 402.612 59.086C402.612 60.142 402.438 61.054 402.09 61.822C401.754 62.59 401.274 63.178 400.65 63.586C400.026 63.982 399.3 64.18 398.472 64.18C397.476 64.18 396.624 63.88 395.916 63.28C395.832 63.196 395.766 63.154 395.718 63.154C395.658 63.154 395.628 63.232 395.628 63.388V66.736C395.628 66.892 395.562 66.97 395.43 66.97H394.314C394.182 66.97 394.116 66.892 394.116 66.736V54.748C394.116 54.652 394.134 54.58 394.17 54.532C394.218 54.484 394.296 54.46 394.404 54.46H395.358ZM395.628 61.894C396.012 62.29 396.396 62.59 396.78 62.794C397.176 62.986 397.608 63.082 398.076 63.082C398.976 63.082 399.696 62.74 400.236 62.056C400.788 61.372 401.064 60.388 401.064 59.104C401.064 57.856 400.794 56.926 400.254 56.314C399.714 55.69 399.018 55.378 398.166 55.378C397.686 55.378 397.254 55.486 396.87 55.702C396.486 55.906 396.18 56.17 395.952 56.494C395.736 56.818 395.628 57.136 395.628 57.448V61.894ZM404.407 66.574C404.347 66.574 404.305 66.55 404.281 66.502C404.257 66.454 404.257 66.388 404.281 66.304L405.091 64.288C405.127 64.216 405.145 64.162 405.145 64.126C405.145 64.042 405.079 64 404.947 64H404.713C404.557 64 404.479 63.928 404.479 63.784V62.182C404.479 62.05 404.539 61.984 404.659 61.984H406.153C406.273 61.984 406.333 62.044 406.333 62.164V63.64C406.333 63.724 406.315 63.796 406.279 63.856L404.965 66.376C404.893 66.508 404.773 66.574 404.605 66.574H404.407ZM422.438 63.658C422.45 63.682 422.456 63.724 422.456 63.784C422.456 63.928 422.384 64 422.24 64H420.926C420.794 64 420.698 63.928 420.638 63.784L418.316 58.114C418.28 58.042 418.232 57.988 418.172 57.952C418.112 57.916 418.016 57.898 417.884 57.898H414.842C414.698 57.898 414.626 57.964 414.626 58.096V63.712C414.626 63.82 414.602 63.898 414.554 63.946C414.518 63.982 414.44 64 414.32 64H413.15C413.054 64 412.988 63.982 412.952 63.946C412.916 63.91 412.898 63.85 412.898 63.766V50.896C412.898 50.8 412.91 50.734 412.934 50.698C412.97 50.662 413.03 50.644 413.114 50.644H418.136C419.564 50.644 420.668 50.938 421.448 51.526C422.228 52.114 422.618 52.972 422.618 54.1C422.618 55.048 422.36 55.816 421.844 56.404C421.34 56.98 420.722 57.376 419.99 57.592C419.942 57.604 419.912 57.628 419.9 57.664C419.888 57.7 419.894 57.736 419.918 57.772L422.438 63.658ZM417.632 56.656C418.7 56.656 419.498 56.464 420.026 56.08C420.554 55.696 420.818 55.09 420.818 54.262C420.818 53.482 420.584 52.894 420.116 52.498C419.648 52.102 418.958 51.904 418.046 51.904H414.878C414.71 51.904 414.626 51.97 414.626 52.102V56.422C414.626 56.578 414.68 56.656 414.788 56.656H417.632ZM426.08 59.824C426.08 60.4 426.218 60.934 426.494 61.426C426.782 61.918 427.166 62.308 427.646 62.596C428.126 62.884 428.654 63.028 429.23 63.028C430.43 63.028 431.366 62.53 432.038 61.534C432.086 61.486 432.128 61.462 432.164 61.462C432.2 61.45 432.242 61.456 432.29 61.48L433.046 61.858C433.142 61.918 433.154 62.002 433.082 62.11C432.614 62.83 432.056 63.358 431.408 63.694C430.76 64.018 429.986 64.18 429.086 64.18C428.21 64.18 427.424 63.976 426.728 63.568C426.032 63.16 425.486 62.59 425.09 61.858C424.706 61.114 424.514 60.268 424.514 59.32C424.514 58.3 424.712 57.412 425.108 56.656C425.504 55.888 426.044 55.3 426.728 54.892C427.424 54.484 428.204 54.28 429.068 54.28C429.932 54.28 430.688 54.472 431.336 54.856C431.996 55.24 432.506 55.804 432.866 56.548C433.226 57.28 433.406 58.15 433.406 59.158V59.23C433.406 59.338 433.388 59.422 433.352 59.482C433.316 59.53 433.244 59.554 433.136 59.554H426.242C426.134 59.554 426.08 59.644 426.08 59.824ZM431.588 58.564C431.72 58.564 431.804 58.552 431.84 58.528C431.876 58.492 431.894 58.42 431.894 58.312C431.894 57.784 431.78 57.298 431.552 56.854C431.336 56.398 431.012 56.038 430.58 55.774C430.16 55.498 429.668 55.36 429.104 55.36C428.492 55.36 427.958 55.516 427.502 55.828C427.046 56.128 426.698 56.524 426.458 57.016C426.218 57.496 426.104 58.012 426.116 58.564H431.588ZM441.075 62.848C440.151 63.736 439.083 64.18 437.871 64.18C436.935 64.18 436.197 63.946 435.657 63.478C435.129 62.998 434.865 62.362 434.865 61.57C434.865 60.61 435.267 59.854 436.071 59.302C436.887 58.75 438.063 58.426 439.599 58.33L441.003 58.222C441.207 58.198 441.309 58.108 441.309 57.952V57.466C441.309 56.818 441.105 56.308 440.697 55.936C440.301 55.552 439.761 55.36 439.077 55.36C438.021 55.36 437.157 55.84 436.485 56.8C436.449 56.86 436.413 56.902 436.377 56.926C436.341 56.938 436.293 56.932 436.233 56.908L435.261 56.584C435.201 56.56 435.171 56.518 435.171 56.458C435.171 56.422 435.189 56.368 435.225 56.296C435.585 55.66 436.095 55.168 436.755 54.82C437.427 54.46 438.219 54.28 439.131 54.28C440.307 54.28 441.207 54.556 441.831 55.108C442.455 55.648 442.767 56.398 442.767 57.358V63.73C442.767 63.838 442.749 63.91 442.713 63.946C442.677 63.982 442.611 64 442.515 64H441.615C441.471 64 441.387 63.904 441.363 63.712L441.327 62.884C441.315 62.8 441.285 62.758 441.237 62.758C441.189 62.758 441.135 62.788 441.075 62.848ZM441.309 59.428C441.309 59.236 441.219 59.14 441.039 59.14L439.869 59.248C438.753 59.32 437.889 59.536 437.277 59.896C436.677 60.256 436.377 60.754 436.377 61.39C436.377 61.906 436.557 62.314 436.917 62.614C437.289 62.914 437.781 63.064 438.393 63.064C438.765 63.064 439.131 62.998 439.491 62.866C439.851 62.734 440.169 62.554 440.445 62.326C440.721 62.11 440.931 61.882 441.075 61.642C441.231 61.39 441.309 61.15 441.309 60.922V59.428ZM449.352 54.28C450.228 54.28 450.972 54.484 451.584 54.892C452.208 55.3 452.706 55.84 453.078 56.512L453.114 56.656C453.114 56.728 453.072 56.77 452.988 56.782L451.998 57.016L451.944 57.034C451.884 57.034 451.824 56.986 451.764 56.89C451.38 56.374 451.008 55.996 450.648 55.756C450.3 55.516 449.898 55.396 449.442 55.396C448.506 55.396 447.762 55.744 447.21 56.44C446.658 57.124 446.382 58.054 446.382 59.23C446.382 60.418 446.658 61.354 447.21 62.038C447.774 62.722 448.53 63.064 449.478 63.064C450.042 63.064 450.534 62.926 450.954 62.65C451.386 62.374 451.776 61.948 452.124 61.372C452.16 61.312 452.196 61.282 452.232 61.282C452.268 61.27 452.31 61.276 452.358 61.3L453.132 61.588C453.216 61.624 453.24 61.702 453.204 61.822C452.832 62.518 452.322 63.088 451.674 63.532C451.026 63.964 450.252 64.18 449.352 64.18C448.476 64.18 447.696 63.976 447.012 63.568C446.328 63.148 445.794 62.566 445.41 61.822C445.026 61.078 444.834 60.226 444.834 59.266C444.834 58.306 445.026 57.448 445.41 56.692C445.794 55.924 446.328 55.33 447.012 54.91C447.708 54.49 448.488 54.28 449.352 54.28ZM457.668 55.576C457.572 55.576 457.524 55.63 457.524 55.738V61.444C457.524 61.984 457.614 62.356 457.794 62.56C457.974 62.764 458.268 62.866 458.676 62.866H459.918C460.05 62.866 460.116 62.932 460.116 63.064L460.098 63.676C460.098 63.796 460.026 63.874 459.882 63.91C459.57 63.97 459.006 64 458.19 64C457.434 64 456.882 63.826 456.534 63.478C456.186 63.118 456.012 62.554 456.012 61.786V55.774C456.012 55.642 455.952 55.576 455.832 55.576H454.392C454.26 55.576 454.194 55.516 454.194 55.396V54.64C454.194 54.52 454.254 54.46 454.374 54.46H455.904C455.988 54.46 456.03 54.412 456.03 54.316L456.228 51.454C456.228 51.298 456.294 51.22 456.426 51.22H457.326C457.47 51.22 457.542 51.304 457.542 51.472V54.316C457.542 54.412 457.59 54.46 457.686 54.46H459.954C460.086 54.46 460.152 54.514 460.152 54.622V55.396C460.152 55.516 460.086 55.576 459.954 55.576H457.668Z" fill="#333333"/>
<path d="M1.422 5.95C1.422 5.746 1.512 5.644 1.692 5.644H10.278C10.434 5.644 10.512 5.734 10.512 5.914L10.494 7.282C10.494 7.51 10.392 7.624 10.188 7.624H4.392C4.188 7.624 4.086 7.708 4.086 7.876V11.224C4.086 11.404 4.17 11.494 4.338 11.494H8.55C8.718 11.494 8.802 11.578 8.802 11.746V13.186C8.802 13.258 8.784 13.312 8.748 13.348C8.712 13.384 8.646 13.402 8.55 13.402H4.32C4.164 13.402 4.086 13.48 4.086 13.636V18.658C4.086 18.778 4.05 18.868 3.978 18.928C3.918 18.976 3.822 19 3.69 19H1.764C1.632 19 1.542 18.976 1.494 18.928C1.446 18.88 1.422 18.796 1.422 18.676V5.95ZM11.5478 19C11.3318 19 11.2238 18.892 11.2238 18.676V9.766C11.2238 9.562 11.3078 9.46 11.4758 9.46H13.2218C13.3898 9.46 13.4738 9.55 13.4738 9.73V10.828C13.4738 10.924 13.5038 10.972 13.5638 10.972C13.5998 10.972 13.6478 10.942 13.7078 10.882C14.1038 10.378 14.5418 9.988 15.0218 9.712C15.5018 9.424 15.9698 9.28 16.4258 9.28C16.8578 9.28 17.0738 9.376 17.0738 9.568V11.296C17.0738 11.464 16.9958 11.536 16.8398 11.512C16.5038 11.428 16.1318 11.386 15.7238 11.386C15.4118 11.386 15.0818 11.47 14.7338 11.638C14.3978 11.806 14.1158 12.028 13.8878 12.304C13.6718 12.568 13.5638 12.844 13.5638 13.132V18.64C13.5638 18.88 13.4258 19 13.1498 19H11.5478ZM22.6086 19.18C21.6846 19.18 20.8626 18.976 20.1426 18.568C19.4226 18.148 18.8646 17.566 18.4686 16.822C18.0726 16.078 17.8746 15.232 17.8746 14.284C17.8746 13.312 18.0786 12.448 18.4866 11.692C18.8946 10.924 19.4586 10.33 20.1786 9.91C20.8986 9.49 21.7146 9.28 22.6266 9.28C23.5506 9.28 24.3726 9.496 25.0926 9.928C25.8126 10.348 26.3706 10.936 26.7666 11.692C27.1626 12.448 27.3606 13.306 27.3606 14.266C27.3606 15.214 27.1566 16.06 26.7486 16.804C26.3526 17.548 25.7946 18.13 25.0746 18.55C24.3546 18.97 23.5326 19.18 22.6086 19.18ZM22.6266 17.578C23.3946 17.578 23.9766 17.29 24.3726 16.714C24.7806 16.138 24.9846 15.31 24.9846 14.23C24.9846 13.138 24.7806 12.298 24.3726 11.71C23.9646 11.122 23.3826 10.828 22.6266 10.828C21.8706 10.828 21.2826 11.122 20.8626 11.71C20.4546 12.298 20.2506 13.138 20.2506 14.23C20.2506 15.31 20.4546 16.138 20.8626 16.714C21.2826 17.29 21.8706 17.578 22.6266 17.578ZM29.46 19C29.34 19 29.256 18.976 29.208 18.928C29.16 18.88 29.136 18.796 29.136 18.676V9.766C29.136 9.562 29.22 9.46 29.388 9.46H31.188C31.344 9.46 31.422 9.55 31.422 9.73V10.666C31.422 10.738 31.44 10.78 31.476 10.792C31.512 10.804 31.56 10.786 31.62 10.738C32.184 10.246 32.706 9.88 33.186 9.64C33.678 9.4 34.206 9.28 34.77 9.28C35.658 9.28 36.354 9.538 36.858 10.054C37.374 10.558 37.632 11.23 37.632 12.07V18.622C37.632 18.874 37.506 19 37.254 19H35.598C35.478 19 35.394 18.976 35.346 18.928C35.31 18.88 35.292 18.796 35.292 18.676V12.484C35.292 12.016 35.16 11.656 34.896 11.404C34.644 11.14 34.272 11.008 33.78 11.008C33.36 11.008 32.976 11.104 32.628 11.296C32.292 11.488 31.908 11.8 31.476 12.232V18.64C31.476 18.772 31.446 18.868 31.386 18.928C31.326 18.976 31.218 19 31.062 19H29.46ZM43.2803 11.098C43.1603 11.098 43.1003 11.164 43.1003 11.296V16.102C43.1003 16.558 43.1903 16.882 43.3703 17.074C43.5623 17.254 43.8683 17.344 44.2883 17.344H45.3503C45.4223 17.344 45.4823 17.368 45.5303 17.416C45.5783 17.464 45.6023 17.524 45.6023 17.596L45.5843 18.532C45.5843 18.736 45.4703 18.856 45.2423 18.892C44.8103 18.964 44.1503 19 43.2623 19C42.4463 19 41.8223 18.814 41.3903 18.442C40.9703 18.058 40.7603 17.482 40.7603 16.714V11.332C40.7603 11.176 40.6883 11.098 40.5443 11.098H39.3383C39.1463 11.098 39.0503 11.008 39.0503 10.828V9.694C39.0503 9.538 39.1403 9.46 39.3203 9.46H40.6523C40.7603 9.46 40.8143 9.4 40.8143 9.28L41.0483 6.508C41.0603 6.4 41.0843 6.328 41.1203 6.292C41.1563 6.244 41.2163 6.22 41.3003 6.22H42.9023C42.9743 6.22 43.0343 6.25 43.0823 6.31C43.1303 6.358 43.1543 6.43 43.1543 6.526V9.28C43.1543 9.388 43.2083 9.442 43.3163 9.442H45.3503C45.5303 9.442 45.6203 9.526 45.6203 9.694V10.828C45.6203 11.008 45.5183 11.098 45.3143 11.098H43.2803ZM52.0462 14.77C52.0462 14.998 51.9082 15.112 51.6322 15.112H47.4562C47.3362 15.112 47.2522 15.088 47.2042 15.04C47.1562 14.992 47.1322 14.914 47.1322 14.806V13.672C47.1322 13.48 47.2102 13.384 47.3662 13.384H51.8122C51.9682 13.384 52.0462 13.462 52.0462 13.618V14.77ZM56.076 14.968C56.076 15.46 56.19 15.904 56.418 16.3C56.646 16.684 56.958 16.99 57.354 17.218C57.762 17.434 58.206 17.542 58.686 17.542C59.178 17.542 59.622 17.44 60.018 17.236C60.426 17.02 60.81 16.69 61.17 16.246C61.23 16.186 61.278 16.156 61.314 16.156C61.35 16.156 61.404 16.174 61.476 16.21L62.574 16.696C62.658 16.732 62.7 16.786 62.7 16.858C62.7 16.894 62.676 16.948 62.628 17.02C62.088 17.8 61.488 18.358 60.828 18.694C60.18 19.018 59.376 19.18 58.416 19.18C57.504 19.18 56.682 18.976 55.95 18.568C55.23 18.16 54.666 17.59 54.258 16.858C53.85 16.126 53.646 15.292 53.646 14.356C53.646 13.348 53.856 12.46 54.276 11.692C54.696 10.924 55.266 10.33 55.986 9.91C56.706 9.49 57.504 9.28 58.38 9.28C59.28 9.28 60.072 9.478 60.756 9.874C61.452 10.27 61.986 10.846 62.358 11.602C62.742 12.346 62.934 13.234 62.934 14.266V14.338C62.934 14.458 62.916 14.542 62.88 14.59C62.844 14.638 62.766 14.668 62.646 14.68H56.274C56.142 14.68 56.076 14.776 56.076 14.968ZM60.342 13.348C60.462 13.348 60.54 13.336 60.576 13.312C60.624 13.276 60.648 13.204 60.648 13.096C60.648 12.712 60.564 12.34 60.396 11.98C60.228 11.62 59.976 11.326 59.64 11.098C59.316 10.87 58.926 10.756 58.47 10.756C57.762 10.756 57.186 11.008 56.742 11.512C56.31 12.004 56.1 12.616 56.112 13.348H60.342ZM64.9678 19C64.8478 19 64.7638 18.976 64.7158 18.928C64.6678 18.88 64.6438 18.796 64.6438 18.676V9.766C64.6438 9.562 64.7278 9.46 64.8958 9.46H66.6958C66.8518 9.46 66.9298 9.55 66.9298 9.73V10.666C66.9298 10.738 66.9478 10.78 66.9838 10.792C67.0198 10.804 67.0678 10.786 67.1278 10.738C67.6918 10.246 68.2138 9.88 68.6938 9.64C69.1858 9.4 69.7138 9.28 70.2778 9.28C71.1658 9.28 71.8618 9.538 72.3658 10.054C72.8818 10.558 73.1398 11.23 73.1398 12.07V18.622C73.1398 18.874 73.0138 19 72.7618 19H71.1058C70.9858 19 70.9018 18.976 70.8538 18.928C70.8178 18.88 70.7998 18.796 70.7998 18.676V12.484C70.7998 12.016 70.6678 11.656 70.4038 11.404C70.1518 11.14 69.7798 11.008 69.2878 11.008C68.8678 11.008 68.4838 11.104 68.1358 11.296C67.7998 11.488 67.4158 11.8 66.9838 12.232V18.64C66.9838 18.772 66.9538 18.868 66.8938 18.928C66.8338 18.976 66.7258 19 66.5698 19H64.9678ZM81.9741 19C81.7461 19 81.6321 18.892 81.6321 18.676V18.082C81.6321 17.974 81.6021 17.92 81.5421 17.92C81.5061 17.92 81.4581 17.95 81.3981 18.01C81.0501 18.346 80.6601 18.628 80.2281 18.856C79.8081 19.072 79.2921 19.18 78.6801 19.18C77.9361 19.18 77.2761 19 76.7001 18.64C76.1241 18.268 75.6681 17.722 75.3321 17.002C75.0081 16.27 74.8461 15.376 74.8461 14.32C74.8461 13.336 75.0201 12.46 75.3681 11.692C75.7281 10.924 76.2141 10.33 76.8261 9.91C77.4381 9.49 78.1221 9.28 78.8781 9.28C79.3821 9.28 79.8201 9.364 80.1921 9.532C80.5761 9.688 80.9421 9.922 81.2901 10.234C81.3501 10.294 81.4161 10.324 81.4881 10.324C81.5601 10.324 81.5961 10.246 81.5961 10.09V5.932C81.5961 5.74 81.6801 5.644 81.8481 5.644H83.6661C83.8461 5.644 83.9361 5.746 83.9361 5.95V18.658C83.9361 18.778 83.9061 18.868 83.8461 18.928C83.7981 18.976 83.7021 19 83.5581 19H81.9741ZM81.5961 11.818C81.2721 11.482 80.9541 11.236 80.6421 11.08C80.3421 10.912 80.0001 10.828 79.6161 10.828C78.8961 10.828 78.3141 11.122 77.8701 11.71C77.4381 12.286 77.2221 13.144 77.2221 14.284C77.2221 15.436 77.4321 16.288 77.8521 16.84C78.2841 17.392 78.8541 17.668 79.5621 17.668C79.9341 17.668 80.2761 17.584 80.5881 17.416C80.9001 17.236 81.1461 17.008 81.3261 16.732C81.5061 16.456 81.5961 16.174 81.5961 15.886V11.818ZM90.6038 5.644C92.3198 5.644 93.5258 5.65 94.2218 5.662C98.9138 5.77 101.26 7.972 101.26 12.268C101.26 14.416 100.654 16.078 99.4418 17.254C98.2418 18.418 96.4598 19 94.0958 19H90.6218C90.3818 19 90.2618 18.874 90.2618 18.622V5.968C90.2618 5.848 90.2858 5.764 90.3338 5.716C90.3818 5.668 90.4718 5.644 90.6038 5.644ZM93.0878 7.552C92.9798 7.552 92.9258 7.636 92.9258 7.804V16.876C92.9258 16.96 92.9438 17.02 92.9798 17.056C93.0158 17.08 93.0758 17.092 93.1598 17.092H93.6098C95.3018 17.092 96.5318 16.72 97.2998 15.976C98.0798 15.232 98.4698 13.996 98.4698 12.268C98.4698 11.152 98.3138 10.264 98.0018 9.604C97.6898 8.932 97.2218 8.44 96.5978 8.128C95.9858 7.816 95.1818 7.636 94.1858 7.588L93.0878 7.552ZM105.26 14.968C105.26 15.46 105.374 15.904 105.602 16.3C105.83 16.684 106.142 16.99 106.538 17.218C106.946 17.434 107.39 17.542 107.87 17.542C108.362 17.542 108.806 17.44 109.202 17.236C109.61 17.02 109.994 16.69 110.354 16.246C110.414 16.186 110.462 16.156 110.498 16.156C110.534 16.156 110.588 16.174 110.66 16.21L111.758 16.696C111.842 16.732 111.884 16.786 111.884 16.858C111.884 16.894 111.86 16.948 111.812 17.02C111.272 17.8 110.672 18.358 110.012 18.694C109.364 19.018 108.56 19.18 107.6 19.18C106.688 19.18 105.866 18.976 105.134 18.568C104.414 18.16 103.85 17.59 103.442 16.858C103.034 16.126 102.83 15.292 102.83 14.356C102.83 13.348 103.04 12.46 103.46 11.692C103.88 10.924 104.45 10.33 105.17 9.91C105.89 9.49 106.688 9.28 107.564 9.28C108.464 9.28 109.256 9.478 109.94 9.874C110.636 10.27 111.17 10.846 111.542 11.602C111.926 12.346 112.118 13.234 112.118 14.266V14.338C112.118 14.458 112.1 14.542 112.064 14.59C112.028 14.638 111.95 14.668 111.83 14.68H105.458C105.326 14.68 105.26 14.776 105.26 14.968ZM109.526 13.348C109.646 13.348 109.724 13.336 109.76 13.312C109.808 13.276 109.832 13.204 109.832 13.096C109.832 12.712 109.748 12.34 109.58 11.98C109.412 11.62 109.16 11.326 108.824 11.098C108.5 10.87 108.11 10.756 107.654 10.756C106.946 10.756 106.37 11.008 105.926 11.512C105.494 12.004 105.284 12.616 105.296 13.348H109.526ZM122.197 9.46C122.293 9.46 122.359 9.496 122.395 9.568C122.443 9.64 122.449 9.724 122.413 9.82L118.831 18.658C118.771 18.778 118.699 18.868 118.615 18.928C118.543 18.976 118.441 19 118.309 19H117.247C117.103 19 116.989 18.976 116.905 18.928C116.833 18.868 116.767 18.784 116.707 18.676L113.125 9.838C113.113 9.814 113.107 9.772 113.107 9.712C113.107 9.64 113.131 9.58 113.179 9.532C113.227 9.484 113.293 9.46 113.377 9.46H115.267C115.447 9.46 115.567 9.55 115.627 9.73L117.949 15.634C117.985 15.754 118.027 15.814 118.075 15.814C118.123 15.814 118.177 15.748 118.237 15.616L120.541 9.712C120.601 9.544 120.715 9.46 120.883 9.46H122.197Z" fill="#333333"/>
</svg>
