<svg width="635" height="70" viewBox="0 0 635 70" fill="none" xmlns="http://www.w3.org/2000/svg">
<rect x="189" width="446" height="24" fill="#F5D6AB"/>
<rect x="189" width="381" height="24" fill="#C66C49"/>
<path d="M0.648 50.932C0.648 50.74 0.75 50.644 0.954 50.644H11.07C11.274 50.644 11.376 50.74 11.376 50.932V52.336C11.376 52.504 11.28 52.588 11.088 52.588H7.632C7.56 52.588 7.506 52.6 7.47 52.624C7.446 52.648 7.434 52.696 7.434 52.768V63.694C7.434 63.898 7.344 64 7.164 64H5.022C4.854 64 4.77 63.904 4.77 63.712V52.804C4.77 52.72 4.752 52.666 4.716 52.642C4.692 52.606 4.644 52.588 4.572 52.588H0.954C0.846 52.588 0.768 52.57 0.72 52.534C0.672 52.498 0.648 52.432 0.648 52.336V50.932ZM15.4015 64.18C14.4775 64.18 13.6555 63.976 12.9355 63.568C12.2155 63.148 11.6575 62.566 11.2615 61.822C10.8655 61.078 10.6675 60.232 10.6675 59.284C10.6675 58.312 10.8715 57.448 11.2795 56.692C11.6875 55.924 12.2515 55.33 12.9715 54.91C13.6915 54.49 14.5075 54.28 15.4195 54.28C16.3435 54.28 17.1655 54.496 17.8855 54.928C18.6055 55.348 19.1635 55.936 19.5595 56.692C19.9555 57.448 20.1535 58.306 20.1535 59.266C20.1535 60.214 19.9495 61.06 19.5415 61.804C19.1455 62.548 18.5875 63.13 17.8675 63.55C17.1475 63.97 16.3255 64.18 15.4015 64.18ZM15.4195 62.578C16.1875 62.578 16.7695 62.29 17.1655 61.714C17.5735 61.138 17.7775 60.31 17.7775 59.23C17.7775 58.138 17.5735 57.298 17.1655 56.71C16.7575 56.122 16.1755 55.828 15.4195 55.828C14.6635 55.828 14.0755 56.122 13.6555 56.71C13.2475 57.298 13.0435 58.138 13.0435 59.23C13.0435 60.31 13.2475 61.138 13.6555 61.714C14.0755 62.29 14.6635 62.578 15.4195 62.578ZM26.1769 64.18C25.2529 64.18 24.4309 63.976 23.7109 63.568C22.9909 63.148 22.4329 62.566 22.0369 61.822C21.6409 61.078 21.4429 60.232 21.4429 59.284C21.4429 58.312 21.6469 57.448 22.0549 56.692C22.4629 55.924 23.0269 55.33 23.7469 54.91C24.4669 54.49 25.2829 54.28 26.1949 54.28C27.1189 54.28 27.9409 54.496 28.6609 54.928C29.3809 55.348 29.9389 55.936 30.3349 56.692C30.7309 57.448 30.9289 58.306 30.9289 59.266C30.9289 60.214 30.7249 61.06 30.3169 61.804C29.9209 62.548 29.3629 63.13 28.6429 63.55C27.9229 63.97 27.1009 64.18 26.1769 64.18ZM26.1949 62.578C26.9629 62.578 27.5449 62.29 27.9409 61.714C28.3489 61.138 28.5529 60.31 28.5529 59.23C28.5529 58.138 28.3489 57.298 27.9409 56.71C27.5329 56.122 26.9509 55.828 26.1949 55.828C25.4389 55.828 24.8509 56.122 24.4309 56.71C24.0229 57.298 23.8189 58.138 23.8189 59.23C23.8189 60.31 24.0229 61.138 24.4309 61.714C24.8509 62.29 25.4389 62.578 26.1949 62.578ZM35.0443 63.604C35.0443 63.76 35.0143 63.868 34.9543 63.928C34.8943 63.976 34.7863 64 34.6303 64H33.0463C32.9143 64 32.8183 63.976 32.7583 63.928C32.7103 63.88 32.6863 63.796 32.6863 63.676L32.7403 50.95C32.7403 50.746 32.8303 50.644 33.0103 50.644H34.7923C34.9603 50.644 35.0443 50.74 35.0443 50.932V63.604ZM43.1594 56.818C42.9194 56.494 42.6074 56.236 42.2234 56.044C41.8394 55.852 41.3954 55.756 40.8914 55.756C40.3634 55.756 39.9254 55.864 39.5774 56.08C39.2414 56.296 39.0734 56.578 39.0734 56.926C39.0734 57.13 39.1574 57.316 39.3254 57.484C39.4934 57.64 39.7994 57.778 40.2434 57.898L42.3854 58.474C43.2854 58.702 43.9454 59.05 44.3654 59.518C44.7854 59.986 44.9954 60.544 44.9954 61.192C44.9954 61.804 44.8154 62.338 44.4554 62.794C44.1074 63.238 43.6154 63.58 42.9794 63.82C42.3554 64.06 41.6414 64.18 40.8374 64.18C39.8414 64.18 38.9714 64 38.2274 63.64C37.4834 63.268 36.9554 62.788 36.6434 62.2C36.5954 62.104 36.5714 62.038 36.5714 62.002C36.5714 61.93 36.6074 61.87 36.6794 61.822L37.7414 61.282C37.8254 61.234 37.8974 61.21 37.9574 61.21C38.0054 61.21 38.0594 61.24 38.1194 61.3C38.4074 61.708 38.7554 62.032 39.1634 62.272C39.5834 62.512 40.1234 62.632 40.7834 62.632C41.3954 62.632 41.8934 62.53 42.2774 62.326C42.6734 62.11 42.8714 61.816 42.8714 61.444C42.8714 61.192 42.7634 60.982 42.5474 60.814C42.3434 60.634 41.9834 60.478 41.4674 60.346L39.6314 59.914C38.7194 59.698 38.0474 59.374 37.6154 58.942C37.1954 58.51 36.9854 57.958 36.9854 57.286C36.9854 56.698 37.1414 56.176 37.4534 55.72C37.7774 55.264 38.2334 54.91 38.8214 54.658C39.4214 54.406 40.1174 54.28 40.9094 54.28C41.7614 54.28 42.5174 54.442 43.1774 54.766C43.8374 55.078 44.3234 55.48 44.6354 55.972C44.6954 56.068 44.7254 56.146 44.7254 56.206C44.7254 56.266 44.6954 56.314 44.6354 56.35L43.5194 56.908C43.4474 56.932 43.4054 56.944 43.3934 56.944C43.2974 56.944 43.2194 56.902 43.1594 56.818Z" fill="#333333"/>
<path d="M200.448 54.532C200.448 55.816 200.016 56.788 199.152 57.448C198.3 58.096 197.148 58.42 195.696 58.42H192.636C192.528 58.42 192.474 58.474 192.474 58.582V63.73C192.474 63.91 192.384 64 192.204 64H190.98C190.824 64 190.746 63.922 190.746 63.766V50.896C190.746 50.8 190.758 50.734 190.782 50.698C190.818 50.662 190.878 50.644 190.962 50.644H195.498C196.998 50.644 198.198 50.968 199.098 51.616C199.998 52.252 200.448 53.224 200.448 54.532ZM198.684 54.478C198.684 53.59 198.402 52.948 197.838 52.552C197.274 52.156 196.464 51.958 195.408 51.958H192.708C192.552 51.958 192.474 52.03 192.474 52.174V56.854C192.474 56.95 192.486 57.016 192.51 57.052C192.534 57.088 192.576 57.106 192.636 57.106H195.534C196.518 57.106 197.286 56.89 197.838 56.458C198.402 56.014 198.684 55.354 198.684 54.478ZM208.358 62.848C207.434 63.736 206.366 64.18 205.154 64.18C204.218 64.18 203.48 63.946 202.94 63.478C202.412 62.998 202.148 62.362 202.148 61.57C202.148 60.61 202.55 59.854 203.354 59.302C204.17 58.75 205.346 58.426 206.882 58.33L208.286 58.222C208.49 58.198 208.592 58.108 208.592 57.952V57.466C208.592 56.818 208.388 56.308 207.98 55.936C207.584 55.552 207.044 55.36 206.36 55.36C205.304 55.36 204.44 55.84 203.768 56.8C203.732 56.86 203.696 56.902 203.66 56.926C203.624 56.938 203.576 56.932 203.516 56.908L202.544 56.584C202.484 56.56 202.454 56.518 202.454 56.458C202.454 56.422 202.472 56.368 202.508 56.296C202.868 55.66 203.378 55.168 204.038 54.82C204.71 54.46 205.502 54.28 206.414 54.28C207.59 54.28 208.49 54.556 209.114 55.108C209.738 55.648 210.05 56.398 210.05 57.358V63.73C210.05 63.838 210.032 63.91 209.996 63.946C209.96 63.982 209.894 64 209.798 64H208.898C208.754 64 208.67 63.904 208.646 63.712L208.61 62.884C208.598 62.8 208.568 62.758 208.52 62.758C208.472 62.758 208.418 62.788 208.358 62.848ZM208.592 59.428C208.592 59.236 208.502 59.14 208.322 59.14L207.152 59.248C206.036 59.32 205.172 59.536 204.56 59.896C203.96 60.256 203.66 60.754 203.66 61.39C203.66 61.906 203.84 62.314 204.2 62.614C204.572 62.914 205.064 63.064 205.676 63.064C206.048 63.064 206.414 62.998 206.774 62.866C207.134 62.734 207.452 62.554 207.728 62.326C208.004 62.11 208.214 61.882 208.358 61.642C208.514 61.39 208.592 61.15 208.592 60.922V59.428ZM213.917 54.46C214.085 54.46 214.169 54.55 214.169 54.73V55.486C214.169 55.594 214.199 55.648 214.259 55.648C214.295 55.648 214.343 55.618 214.403 55.558C214.655 55.306 214.877 55.102 215.069 54.946C215.261 54.79 215.543 54.64 215.915 54.496C216.287 54.352 216.725 54.28 217.229 54.28C217.985 54.28 218.657 54.46 219.245 54.82C219.845 55.18 220.313 55.72 220.649 56.44C220.997 57.16 221.171 58.042 221.171 59.086C221.171 60.142 220.997 61.054 220.649 61.822C220.313 62.59 219.833 63.178 219.209 63.586C218.585 63.982 217.859 64.18 217.031 64.18C216.035 64.18 215.183 63.88 214.475 63.28C214.391 63.196 214.325 63.154 214.277 63.154C214.217 63.154 214.187 63.232 214.187 63.388V66.736C214.187 66.892 214.121 66.97 213.989 66.97H212.873C212.741 66.97 212.675 66.892 212.675 66.736V54.748C212.675 54.652 212.693 54.58 212.729 54.532C212.777 54.484 212.855 54.46 212.963 54.46H213.917ZM214.187 61.894C214.571 62.29 214.955 62.59 215.339 62.794C215.735 62.986 216.167 63.082 216.635 63.082C217.535 63.082 218.255 62.74 218.795 62.056C219.347 61.372 219.623 60.388 219.623 59.104C219.623 57.856 219.353 56.926 218.813 56.314C218.273 55.69 217.577 55.378 216.725 55.378C216.245 55.378 215.813 55.486 215.429 55.702C215.045 55.906 214.739 56.17 214.511 56.494C214.295 56.818 214.187 57.136 214.187 57.448V61.894ZM224.423 59.824C224.423 60.4 224.561 60.934 224.837 61.426C225.125 61.918 225.509 62.308 225.989 62.596C226.469 62.884 226.997 63.028 227.573 63.028C228.773 63.028 229.709 62.53 230.381 61.534C230.429 61.486 230.471 61.462 230.507 61.462C230.543 61.45 230.585 61.456 230.633 61.48L231.389 61.858C231.485 61.918 231.497 62.002 231.425 62.11C230.957 62.83 230.399 63.358 229.751 63.694C229.103 64.018 228.329 64.18 227.429 64.18C226.553 64.18 225.767 63.976 225.071 63.568C224.375 63.16 223.829 62.59 223.433 61.858C223.049 61.114 222.857 60.268 222.857 59.32C222.857 58.3 223.055 57.412 223.451 56.656C223.847 55.888 224.387 55.3 225.071 54.892C225.767 54.484 226.547 54.28 227.411 54.28C228.275 54.28 229.031 54.472 229.679 54.856C230.339 55.24 230.849 55.804 231.209 56.548C231.569 57.28 231.749 58.15 231.749 59.158V59.23C231.749 59.338 231.731 59.422 231.695 59.482C231.659 59.53 231.587 59.554 231.479 59.554H224.585C224.477 59.554 224.423 59.644 224.423 59.824ZM229.931 58.564C230.063 58.564 230.147 58.552 230.183 58.528C230.219 58.492 230.237 58.42 230.237 58.312C230.237 57.784 230.123 57.298 229.895 56.854C229.679 56.398 229.355 56.038 228.923 55.774C228.503 55.498 228.011 55.36 227.447 55.36C226.835 55.36 226.301 55.516 225.845 55.828C225.389 56.128 225.041 56.524 224.801 57.016C224.561 57.496 224.447 58.012 224.459 58.564H229.931ZM234.126 64C233.958 64 233.874 63.922 233.874 63.766V54.694C233.874 54.538 233.94 54.46 234.072 54.46H235.116C235.248 54.46 235.314 54.526 235.314 54.658V55.828C235.314 55.9 235.332 55.942 235.368 55.954C235.416 55.966 235.464 55.942 235.512 55.882C236.424 54.814 237.354 54.28 238.302 54.28C238.722 54.28 238.932 54.358 238.932 54.514V55.594C238.932 55.714 238.878 55.762 238.77 55.738C238.554 55.702 238.284 55.684 237.96 55.684C237.612 55.684 237.234 55.786 236.826 55.99C236.418 56.194 236.076 56.458 235.8 56.782C235.524 57.106 235.386 57.436 235.386 57.772V63.73C235.386 63.91 235.296 64 235.116 64H234.126ZM238.821 66.574C238.761 66.574 238.719 66.55 238.695 66.502C238.671 66.454 238.671 66.388 238.695 66.304L239.505 64.288C239.541 64.216 239.559 64.162 239.559 64.126C239.559 64.042 239.493 64 239.361 64H239.127C238.971 64 238.893 63.928 238.893 63.784V62.182C238.893 62.05 238.953 61.984 239.073 61.984H240.567C240.687 61.984 240.747 62.044 240.747 62.164V63.64C240.747 63.724 240.729 63.796 240.693 63.856L239.379 66.376C239.307 66.508 239.187 66.574 239.019 66.574H238.821ZM257.014 54.532C257.014 55.816 256.582 56.788 255.718 57.448C254.866 58.096 253.714 58.42 252.262 58.42H249.202C249.094 58.42 249.04 58.474 249.04 58.582V63.73C249.04 63.91 248.95 64 248.77 64H247.546C247.39 64 247.312 63.922 247.312 63.766V50.896C247.312 50.8 247.324 50.734 247.348 50.698C247.384 50.662 247.444 50.644 247.528 50.644H252.064C253.564 50.644 254.764 50.968 255.664 51.616C256.564 52.252 257.014 53.224 257.014 54.532ZM255.25 54.478C255.25 53.59 254.968 52.948 254.404 52.552C253.84 52.156 253.03 51.958 251.974 51.958H249.274C249.118 51.958 249.04 52.03 249.04 52.174V56.854C249.04 56.95 249.052 57.016 249.076 57.052C249.1 57.088 249.142 57.106 249.202 57.106H252.1C253.084 57.106 253.852 56.89 254.404 56.458C254.968 56.014 255.25 55.354 255.25 54.478ZM259.457 59.824C259.457 60.4 259.595 60.934 259.871 61.426C260.159 61.918 260.543 62.308 261.023 62.596C261.503 62.884 262.031 63.028 262.607 63.028C263.807 63.028 264.743 62.53 265.415 61.534C265.463 61.486 265.505 61.462 265.541 61.462C265.577 61.45 265.619 61.456 265.667 61.48L266.423 61.858C266.519 61.918 266.531 62.002 266.459 62.11C265.991 62.83 265.433 63.358 264.785 63.694C264.137 64.018 263.363 64.18 262.463 64.18C261.587 64.18 260.801 63.976 260.105 63.568C259.409 63.16 258.863 62.59 258.467 61.858C258.083 61.114 257.891 60.268 257.891 59.32C257.891 58.3 258.089 57.412 258.485 56.656C258.881 55.888 259.421 55.3 260.105 54.892C260.801 54.484 261.581 54.28 262.445 54.28C263.309 54.28 264.065 54.472 264.713 54.856C265.373 55.24 265.883 55.804 266.243 56.548C266.603 57.28 266.783 58.15 266.783 59.158V59.23C266.783 59.338 266.765 59.422 266.729 59.482C266.693 59.53 266.621 59.554 266.513 59.554H259.619C259.511 59.554 259.457 59.644 259.457 59.824ZM264.965 58.564C265.097 58.564 265.181 58.552 265.217 58.528C265.253 58.492 265.271 58.42 265.271 58.312C265.271 57.784 265.157 57.298 264.929 56.854C264.713 56.398 264.389 56.038 263.957 55.774C263.537 55.498 263.045 55.36 262.481 55.36C261.869 55.36 261.335 55.516 260.879 55.828C260.423 56.128 260.075 56.524 259.835 57.016C259.595 57.496 259.481 58.012 259.493 58.564H264.965ZM269.159 64C268.991 64 268.907 63.922 268.907 63.766V54.694C268.907 54.538 268.973 54.46 269.105 54.46H270.185C270.317 54.46 270.383 54.526 270.383 54.658V55.702C270.383 55.834 270.437 55.852 270.545 55.756C271.217 55.228 271.787 54.85 272.255 54.622C272.735 54.394 273.269 54.28 273.857 54.28C274.769 54.28 275.477 54.526 275.981 55.018C276.497 55.51 276.755 56.17 276.755 56.998V63.712C276.755 63.904 276.665 64 276.485 64H275.477C275.321 64 275.243 63.922 275.243 63.766V57.34C275.243 56.74 275.087 56.278 274.775 55.954C274.475 55.63 274.007 55.468 273.371 55.468C272.867 55.468 272.399 55.582 271.967 55.81C271.547 56.026 271.031 56.398 270.419 56.926V63.73C270.419 63.826 270.395 63.898 270.347 63.946C270.311 63.982 270.245 64 270.149 64H269.159ZM278.969 66.574C278.909 66.574 278.867 66.55 278.843 66.502C278.819 66.454 278.819 66.388 278.843 66.304L279.653 64.288C279.689 64.216 279.707 64.162 279.707 64.126C279.707 64.042 279.641 64 279.509 64H279.275C279.119 64 279.041 63.928 279.041 63.784V62.182C279.041 62.05 279.101 61.984 279.221 61.984H280.715C280.835 61.984 280.895 62.044 280.895 62.164V63.64C280.895 63.724 280.877 63.796 280.841 63.856L279.527 66.376C279.455 66.508 279.335 66.574 279.167 66.574H278.969ZM287.677 64C287.617 64 287.563 63.982 287.515 63.946C287.479 63.898 287.461 63.844 287.461 63.784V50.896C287.461 50.728 287.539 50.644 287.695 50.644H291.853C293.449 50.644 294.679 50.944 295.543 51.544C296.419 52.132 296.857 52.984 296.857 54.1C296.857 54.832 296.665 55.444 296.281 55.936C295.897 56.428 295.303 56.818 294.499 57.106C294.451 57.118 294.427 57.142 294.427 57.178C294.427 57.214 294.451 57.238 294.499 57.25C296.287 57.706 297.181 58.768 297.181 60.436C297.181 61.624 296.737 62.518 295.849 63.118C294.961 63.706 293.671 64 291.979 64H287.677ZM292.087 56.602C292.927 56.602 293.641 56.422 294.229 56.062C294.817 55.702 295.111 55.114 295.111 54.298C295.111 53.506 294.823 52.912 294.247 52.516C293.671 52.108 292.873 51.904 291.853 51.904H289.423C289.267 51.904 289.189 51.976 289.189 52.12V56.368C289.189 56.524 289.243 56.602 289.351 56.602H292.087ZM291.889 62.74C293.065 62.74 293.941 62.548 294.517 62.164C295.093 61.78 295.381 61.186 295.381 60.382C295.381 59.542 295.081 58.918 294.481 58.51C293.881 58.102 293.083 57.898 292.087 57.898H289.441C289.345 57.898 289.279 57.916 289.243 57.952C289.207 57.976 289.189 58.03 289.189 58.114V62.488C289.189 62.584 289.201 62.65 289.225 62.686C289.249 62.722 289.291 62.74 289.351 62.74H291.889ZM305.231 62.848C304.307 63.736 303.239 64.18 302.027 64.18C301.091 64.18 300.353 63.946 299.813 63.478C299.285 62.998 299.021 62.362 299.021 61.57C299.021 60.61 299.423 59.854 300.227 59.302C301.043 58.75 302.219 58.426 303.755 58.33L305.159 58.222C305.363 58.198 305.465 58.108 305.465 57.952V57.466C305.465 56.818 305.261 56.308 304.853 55.936C304.457 55.552 303.917 55.36 303.233 55.36C302.177 55.36 301.313 55.84 300.641 56.8C300.605 56.86 300.569 56.902 300.533 56.926C300.497 56.938 300.449 56.932 300.389 56.908L299.417 56.584C299.357 56.56 299.327 56.518 299.327 56.458C299.327 56.422 299.345 56.368 299.381 56.296C299.741 55.66 300.251 55.168 300.911 54.82C301.583 54.46 302.375 54.28 303.287 54.28C304.463 54.28 305.363 54.556 305.987 55.108C306.611 55.648 306.923 56.398 306.923 57.358V63.73C306.923 63.838 306.905 63.91 306.869 63.946C306.833 63.982 306.767 64 306.671 64H305.771C305.627 64 305.543 63.904 305.519 63.712L305.483 62.884C305.471 62.8 305.441 62.758 305.393 62.758C305.345 62.758 305.291 62.788 305.231 62.848ZM305.465 59.428C305.465 59.236 305.375 59.14 305.195 59.14L304.025 59.248C302.909 59.32 302.045 59.536 301.433 59.896C300.833 60.256 300.533 60.754 300.533 61.39C300.533 61.906 300.713 62.314 301.073 62.614C301.445 62.914 301.937 63.064 302.549 63.064C302.921 63.064 303.287 62.998 303.647 62.866C304.007 62.734 304.325 62.554 304.601 62.326C304.877 62.11 305.087 61.882 305.231 61.642C305.387 61.39 305.465 61.15 305.465 60.922V59.428ZM311.078 63.694C311.078 63.814 311.054 63.898 311.006 63.946C310.958 63.982 310.874 64 310.754 64H309.818C309.71 64 309.638 63.982 309.602 63.946C309.566 63.91 309.548 63.844 309.548 63.748L309.566 50.896C309.566 50.728 309.638 50.644 309.782 50.644H310.862C311.006 50.644 311.078 50.722 311.078 50.878V63.694ZM319.579 56.566C319.327 56.194 318.979 55.9 318.535 55.684C318.103 55.456 317.599 55.342 317.023 55.342C316.363 55.342 315.823 55.486 315.403 55.774C314.983 56.05 314.773 56.416 314.773 56.872C314.773 57.148 314.875 57.4 315.079 57.628C315.295 57.844 315.679 58.036 316.231 58.204L318.517 58.888C319.309 59.104 319.897 59.428 320.281 59.86C320.665 60.28 320.857 60.784 320.857 61.372C320.857 61.924 320.689 62.416 320.353 62.848C320.017 63.268 319.555 63.598 318.967 63.838C318.379 64.066 317.713 64.18 316.969 64.18C316.045 64.18 315.223 64 314.503 63.64C313.783 63.268 313.273 62.788 312.973 62.2C312.937 62.14 312.919 62.092 312.919 62.056C312.919 61.996 312.949 61.948 313.009 61.912L313.711 61.516C313.831 61.444 313.921 61.45 313.981 61.534C314.629 62.566 315.631 63.082 316.987 63.082C317.695 63.07 318.277 62.926 318.733 62.65C319.201 62.362 319.435 61.99 319.435 61.534C319.435 61.198 319.297 60.916 319.021 60.688C318.745 60.46 318.295 60.256 317.671 60.076L315.817 59.554C314.941 59.326 314.311 59.008 313.927 58.6C313.555 58.192 313.369 57.694 313.369 57.106C313.369 56.554 313.519 56.062 313.819 55.63C314.131 55.198 314.563 54.868 315.115 54.64C315.679 54.4 316.321 54.28 317.041 54.28C317.833 54.28 318.541 54.43 319.165 54.73C319.801 55.03 320.287 55.438 320.623 55.954C320.707 56.074 320.701 56.158 320.605 56.206L319.849 56.62C319.801 56.644 319.765 56.656 319.741 56.656C319.693 56.656 319.639 56.626 319.579 56.566ZM328.61 62.848C327.686 63.736 326.618 64.18 325.406 64.18C324.47 64.18 323.732 63.946 323.192 63.478C322.664 62.998 322.4 62.362 322.4 61.57C322.4 60.61 322.802 59.854 323.606 59.302C324.422 58.75 325.598 58.426 327.134 58.33L328.538 58.222C328.742 58.198 328.844 58.108 328.844 57.952V57.466C328.844 56.818 328.64 56.308 328.232 55.936C327.836 55.552 327.296 55.36 326.612 55.36C325.556 55.36 324.692 55.84 324.02 56.8C323.984 56.86 323.948 56.902 323.912 56.926C323.876 56.938 323.828 56.932 323.768 56.908L322.796 56.584C322.736 56.56 322.706 56.518 322.706 56.458C322.706 56.422 322.724 56.368 322.76 56.296C323.12 55.66 323.63 55.168 324.29 54.82C324.962 54.46 325.754 54.28 326.666 54.28C327.842 54.28 328.742 54.556 329.366 55.108C329.99 55.648 330.302 56.398 330.302 57.358V63.73C330.302 63.838 330.284 63.91 330.248 63.946C330.212 63.982 330.146 64 330.05 64H329.15C329.006 64 328.922 63.904 328.898 63.712L328.862 62.884C328.85 62.8 328.82 62.758 328.772 62.758C328.724 62.758 328.67 62.788 328.61 62.848ZM328.844 59.428C328.844 59.236 328.754 59.14 328.574 59.14L327.404 59.248C326.288 59.32 325.424 59.536 324.812 59.896C324.212 60.256 323.912 60.754 323.912 61.39C323.912 61.906 324.092 62.314 324.452 62.614C324.824 62.914 325.316 63.064 325.928 63.064C326.3 63.064 326.666 62.998 327.026 62.866C327.386 62.734 327.704 62.554 327.98 62.326C328.256 62.11 328.466 61.882 328.61 61.642C328.766 61.39 328.844 61.15 328.844 60.922V59.428ZM333.179 64C333.011 64 332.927 63.922 332.927 63.766V54.694C332.927 54.538 332.993 54.46 333.125 54.46H334.205C334.325 54.46 334.385 54.526 334.385 54.658V55.702C334.385 55.846 334.445 55.864 334.565 55.756C335.213 55.228 335.765 54.85 336.221 54.622C336.677 54.394 337.187 54.28 337.751 54.28C338.423 54.28 338.975 54.43 339.407 54.73C339.851 55.03 340.151 55.408 340.307 55.864C340.331 55.9 340.355 55.918 340.379 55.918C340.415 55.918 340.475 55.888 340.559 55.828C341.183 55.3 341.741 54.91 342.233 54.658C342.737 54.406 343.265 54.28 343.817 54.28C344.681 54.28 345.353 54.526 345.833 55.018C346.325 55.51 346.571 56.176 346.571 57.016V63.712C346.571 63.904 346.481 64 346.301 64H345.293C345.137 64 345.059 63.922 345.059 63.766V57.34C345.059 56.74 344.915 56.278 344.627 55.954C344.339 55.63 343.907 55.468 343.331 55.468C342.851 55.468 342.401 55.588 341.981 55.828C341.561 56.056 341.153 56.344 340.757 56.692C340.661 56.788 340.595 56.872 340.559 56.944C340.523 57.016 340.505 57.106 340.505 57.214V63.712C340.505 63.904 340.415 64 340.235 64H339.227C339.071 64 338.993 63.922 338.993 63.766V57.34C338.993 56.092 338.417 55.468 337.265 55.468C336.785 55.468 336.341 55.582 335.933 55.81C335.537 56.026 335.039 56.398 334.439 56.926V63.73C334.439 63.826 334.415 63.898 334.367 63.946C334.331 63.982 334.265 64 334.169 64H333.179ZM350.824 52.408C350.824 52.528 350.8 52.618 350.752 52.678C350.704 52.726 350.62 52.75 350.5 52.75H349.456C349.276 52.75 349.186 52.648 349.186 52.444V50.932C349.186 50.74 349.27 50.644 349.438 50.644H350.572C350.644 50.644 350.704 50.668 350.752 50.716C350.8 50.764 350.824 50.83 350.824 50.914V52.408ZM350.752 63.694C350.752 63.814 350.728 63.898 350.68 63.946C350.632 63.982 350.548 64 350.428 64H349.51C349.402 64 349.33 63.982 349.294 63.946C349.258 63.91 349.24 63.844 349.24 63.748V54.712C349.24 54.544 349.312 54.46 349.456 54.46H350.554C350.686 54.46 350.752 54.538 350.752 54.694V63.694ZM361.286 54.46C361.382 54.46 361.448 54.484 361.484 54.532C361.532 54.58 361.556 54.658 361.556 54.766V66.736C361.556 66.892 361.484 66.97 361.34 66.97H360.242C360.11 66.97 360.044 66.892 360.044 66.736V63.424C360.044 63.256 360.02 63.172 359.972 63.172C359.936 63.172 359.87 63.208 359.774 63.28C359.426 63.544 359.024 63.76 358.568 63.928C358.112 64.096 357.626 64.18 357.11 64.18C356.27 64.18 355.544 63.976 354.932 63.568C354.32 63.16 353.846 62.584 353.51 61.84C353.186 61.084 353.024 60.202 353.024 59.194C353.024 58.21 353.186 57.352 353.51 56.62C353.846 55.876 354.32 55.3 354.932 54.892C355.556 54.484 356.294 54.28 357.146 54.28C357.926 54.28 358.532 54.406 358.964 54.658C359.408 54.898 359.792 55.198 360.116 55.558C360.176 55.618 360.212 55.648 360.224 55.648C360.26 55.648 360.29 55.6 360.314 55.504L360.44 54.748C360.464 54.64 360.494 54.568 360.53 54.532C360.578 54.484 360.656 54.46 360.764 54.46H361.286ZM360.044 57.682C360.044 57.274 359.93 56.89 359.702 56.53C359.486 56.17 359.18 55.882 358.784 55.666C358.4 55.45 357.974 55.342 357.506 55.342C356.654 55.342 355.952 55.672 355.4 56.332C354.848 56.98 354.572 57.928 354.572 59.176C354.572 60.424 354.842 61.39 355.382 62.074C355.922 62.746 356.636 63.082 357.524 63.082C358.004 63.082 358.466 62.98 358.91 62.776C359.354 62.572 359.732 62.29 360.044 61.93V57.682Z" fill="#333333"/>
<path d="M11.628 14.23C11.628 15.97 11.184 17.23 10.296 18.01C9.42 18.79 8.136 19.18 6.444 19.18C4.608 19.18 3.282 18.748 2.466 17.884C1.662 17.008 1.26 15.682 1.26 13.906V5.968C1.26 5.86 1.284 5.782 1.332 5.734C1.38 5.674 1.44 5.644 1.512 5.644H3.672C3.84 5.644 3.924 5.74 3.924 5.932V14.302C3.924 15.31 4.152 16.054 4.608 16.534C5.064 17.002 5.742 17.236 6.642 17.236C8.502 17.236 9.432 16.24 9.432 14.248V5.95C9.432 5.746 9.516 5.644 9.684 5.644H11.394C11.55 5.644 11.628 5.74 11.628 5.932V14.23ZM24.9623 18.406C25.0703 18.586 25.1243 18.718 25.1243 18.802C25.1243 18.934 25.0103 19 24.7823 19H22.6763C22.4483 19 22.2923 18.922 22.2083 18.766L19.3643 14.32C19.2683 14.176 19.1963 14.104 19.1483 14.104C19.0763 14.104 18.9983 14.182 18.9143 14.338L16.1063 18.766C16.0343 18.922 15.8663 19 15.6023 19H13.8923C13.6643 19 13.5503 18.94 13.5503 18.82C13.5503 18.712 13.6103 18.574 13.7303 18.406L17.6363 12.484C17.7083 12.376 17.7443 12.292 17.7443 12.232C17.7443 12.16 17.7023 12.064 17.6183 11.944L13.7483 6.058C13.7123 5.998 13.6943 5.932 13.6943 5.86C13.6943 5.8 13.7123 5.752 13.7483 5.716C13.7963 5.668 13.8563 5.644 13.9283 5.644H16.1603C16.2923 5.644 16.3883 5.662 16.4483 5.698C16.5203 5.734 16.5803 5.8 16.6283 5.896L19.1843 9.946C19.2323 10.03 19.2863 10.072 19.3463 10.072C19.4183 10.072 19.4843 10.024 19.5443 9.928L22.1003 5.896C22.1483 5.8 22.2023 5.734 22.2623 5.698C22.3343 5.662 22.4303 5.644 22.5503 5.644H24.4403C24.5963 5.644 24.6743 5.698 24.6743 5.806C24.6743 5.866 24.6443 5.938 24.5843 6.022L20.8403 11.692C20.7803 11.788 20.7503 11.866 20.7503 11.926C20.7503 11.974 20.7803 12.058 20.8403 12.178L24.9623 18.406ZM41.3393 18.568C41.3633 18.604 41.3753 18.658 41.3753 18.73C41.3753 18.802 41.3513 18.868 41.3033 18.928C41.2553 18.976 41.1893 19 41.1053 19H38.9093C38.8133 19 38.7353 18.982 38.6753 18.946C38.6273 18.898 38.5853 18.82 38.5493 18.712L36.4793 13.456C36.4433 13.372 36.3893 13.312 36.3173 13.276C36.2453 13.24 36.1373 13.222 35.9933 13.222H33.8333C33.6893 13.222 33.6173 13.288 33.6173 13.42V18.622C33.6173 18.754 33.5813 18.85 33.5093 18.91C33.4493 18.97 33.3473 19 33.2033 19H31.2953C31.1633 19 31.0733 18.976 31.0253 18.928C30.9773 18.868 30.9533 18.784 30.9533 18.676V5.95C30.9533 5.746 31.0433 5.644 31.2233 5.644H36.6413C38.1893 5.644 39.3893 5.956 40.2413 6.58C41.0933 7.204 41.5193 8.092 41.5193 9.244C41.5193 10.144 41.2793 10.894 40.7993 11.494C40.3193 12.094 39.7193 12.52 38.9993 12.772C38.9033 12.808 38.8793 12.886 38.9273 13.006L41.3393 18.568ZM36.2633 11.386C37.9313 11.386 38.7653 10.738 38.7653 9.442C38.7653 8.794 38.5613 8.302 38.1533 7.966C37.7573 7.63 37.1993 7.462 36.4793 7.462H33.9413C33.8213 7.462 33.7373 7.48 33.6893 7.516C33.6413 7.552 33.6173 7.618 33.6173 7.714V11.116C33.6173 11.212 33.6353 11.284 33.6713 11.332C33.7073 11.368 33.7673 11.386 33.8513 11.386H36.2633ZM45.4413 14.968C45.4413 15.46 45.5553 15.904 45.7833 16.3C46.0113 16.684 46.3233 16.99 46.7193 17.218C47.1273 17.434 47.5713 17.542 48.0513 17.542C48.5433 17.542 48.9873 17.44 49.3833 17.236C49.7913 17.02 50.1753 16.69 50.5353 16.246C50.5953 16.186 50.6433 16.156 50.6793 16.156C50.7153 16.156 50.7693 16.174 50.8413 16.21L51.9393 16.696C52.0233 16.732 52.0653 16.786 52.0653 16.858C52.0653 16.894 52.0413 16.948 51.9933 17.02C51.4533 17.8 50.8533 18.358 50.1933 18.694C49.5453 19.018 48.7413 19.18 47.7813 19.18C46.8693 19.18 46.0473 18.976 45.3153 18.568C44.5953 18.16 44.0313 17.59 43.6233 16.858C43.2153 16.126 43.0113 15.292 43.0113 14.356C43.0113 13.348 43.2213 12.46 43.6413 11.692C44.0613 10.924 44.6313 10.33 45.3513 9.91C46.0713 9.49 46.8693 9.28 47.7453 9.28C48.6453 9.28 49.4373 9.478 50.1213 9.874C50.8173 10.27 51.3513 10.846 51.7233 11.602C52.1073 12.346 52.2993 13.234 52.2993 14.266V14.338C52.2993 14.458 52.2813 14.542 52.2453 14.59C52.2093 14.638 52.1313 14.668 52.0113 14.68H45.6393C45.5073 14.68 45.4413 14.776 45.4413 14.968ZM49.7073 13.348C49.8273 13.348 49.9053 13.336 49.9413 13.312C49.9893 13.276 50.0133 13.204 50.0133 13.096C50.0133 12.712 49.9293 12.34 49.7613 11.98C49.5933 11.62 49.3413 11.326 49.0053 11.098C48.6813 10.87 48.2913 10.756 47.8353 10.756C47.1273 10.756 46.5513 11.008 46.1073 11.512C45.6753 12.004 45.4653 12.616 45.4773 13.348H49.7073ZM59.841 11.818C59.601 11.494 59.289 11.236 58.905 11.044C58.521 10.852 58.077 10.756 57.573 10.756C57.045 10.756 56.607 10.864 56.259 11.08C55.923 11.296 55.755 11.578 55.755 11.926C55.755 12.13 55.839 12.316 56.007 12.484C56.175 12.64 56.481 12.778 56.925 12.898L59.067 13.474C59.967 13.702 60.627 14.05 61.047 14.518C61.467 14.986 61.677 15.544 61.677 16.192C61.677 16.804 61.497 17.338 61.137 17.794C60.789 18.238 60.297 18.58 59.661 18.82C59.037 19.06 58.323 19.18 57.519 19.18C56.523 19.18 55.653 19 54.909 18.64C54.165 18.268 53.637 17.788 53.325 17.2C53.277 17.104 53.253 17.038 53.253 17.002C53.253 16.93 53.289 16.87 53.361 16.822L54.423 16.282C54.507 16.234 54.579 16.21 54.639 16.21C54.687 16.21 54.741 16.24 54.801 16.3C55.089 16.708 55.437 17.032 55.845 17.272C56.265 17.512 56.805 17.632 57.465 17.632C58.077 17.632 58.575 17.53 58.959 17.326C59.355 17.11 59.553 16.816 59.553 16.444C59.553 16.192 59.445 15.982 59.229 15.814C59.025 15.634 58.665 15.478 58.149 15.346L56.313 14.914C55.401 14.698 54.729 14.374 54.297 13.942C53.877 13.51 53.667 12.958 53.667 12.286C53.667 11.698 53.823 11.176 54.135 10.72C54.459 10.264 54.915 9.91 55.503 9.658C56.103 9.406 56.799 9.28 57.591 9.28C58.443 9.28 59.199 9.442 59.859 9.766C60.519 10.078 61.005 10.48 61.317 10.972C61.377 11.068 61.407 11.146 61.407 11.206C61.407 11.266 61.377 11.314 61.317 11.35L60.201 11.908C60.129 11.932 60.087 11.944 60.075 11.944C59.979 11.944 59.901 11.902 59.841 11.818ZM65.3925 14.968C65.3925 15.46 65.5065 15.904 65.7345 16.3C65.9625 16.684 66.2745 16.99 66.6705 17.218C67.0785 17.434 67.5225 17.542 68.0025 17.542C68.4945 17.542 68.9385 17.44 69.3345 17.236C69.7425 17.02 70.1265 16.69 70.4865 16.246C70.5465 16.186 70.5945 16.156 70.6305 16.156C70.6665 16.156 70.7205 16.174 70.7925 16.21L71.8905 16.696C71.9745 16.732 72.0165 16.786 72.0165 16.858C72.0165 16.894 71.9925 16.948 71.9445 17.02C71.4045 17.8 70.8045 18.358 70.1445 18.694C69.4965 19.018 68.6925 19.18 67.7325 19.18C66.8205 19.18 65.9985 18.976 65.2665 18.568C64.5465 18.16 63.9825 17.59 63.5745 16.858C63.1665 16.126 62.9625 15.292 62.9625 14.356C62.9625 13.348 63.1725 12.46 63.5925 11.692C64.0125 10.924 64.5825 10.33 65.3025 9.91C66.0225 9.49 66.8205 9.28 67.6965 9.28C68.5965 9.28 69.3885 9.478 70.0725 9.874C70.7685 10.27 71.3025 10.846 71.6745 11.602C72.0585 12.346 72.2505 13.234 72.2505 14.266V14.338C72.2505 14.458 72.2325 14.542 72.1965 14.59C72.1605 14.638 72.0825 14.668 71.9625 14.68H65.5905C65.4585 14.68 65.3925 14.776 65.3925 14.968ZM69.6585 13.348C69.7785 13.348 69.8565 13.336 69.8925 13.312C69.9405 13.276 69.9645 13.204 69.9645 13.096C69.9645 12.712 69.8805 12.34 69.7125 11.98C69.5445 11.62 69.2925 11.326 68.9565 11.098C68.6325 10.87 68.2425 10.756 67.7865 10.756C67.0785 10.756 66.5025 11.008 66.0585 11.512C65.6265 12.004 65.4165 12.616 65.4285 13.348H69.6585ZM79.3062 18.01C78.4662 18.79 77.4822 19.18 76.3542 19.18C75.4422 19.18 74.7162 18.94 74.1762 18.46C73.6482 17.968 73.3842 17.332 73.3842 16.552C73.3842 15.556 73.8282 14.764 74.7162 14.176C75.6042 13.588 76.8462 13.264 78.4422 13.204L79.3422 13.15C79.5342 13.126 79.6302 13.036 79.6302 12.88V12.466C79.6302 11.938 79.4682 11.53 79.1442 11.242C78.8322 10.942 78.4002 10.792 77.8482 10.792C76.9362 10.792 76.2342 11.188 75.7422 11.98C75.7062 12.028 75.6702 12.07 75.6342 12.106C75.6102 12.13 75.5742 12.142 75.5262 12.142C75.4662 12.142 75.4182 12.136 75.3822 12.124L73.8702 11.746C73.7742 11.722 73.7262 11.668 73.7262 11.584C73.7262 11.524 73.7502 11.446 73.7982 11.35C74.1102 10.678 74.6202 10.168 75.3282 9.82C76.0482 9.46 76.9242 9.28 77.9562 9.28C79.3002 9.28 80.2842 9.544 80.9082 10.072C81.5442 10.6 81.8622 11.344 81.8622 12.304V18.64C81.8622 18.772 81.8382 18.868 81.7902 18.928C81.7542 18.976 81.6762 19 81.5562 19H80.0262C79.9182 19 79.8402 18.964 79.7922 18.892C79.7442 18.82 79.7082 18.712 79.6842 18.568L79.6662 18.028C79.6542 17.92 79.6122 17.866 79.5402 17.866C79.5042 17.866 79.4262 17.914 79.3062 18.01ZM79.6302 14.644C79.6302 14.536 79.6062 14.458 79.5582 14.41C79.5222 14.362 79.4562 14.338 79.3602 14.338L78.6222 14.392C77.7822 14.452 77.0802 14.644 76.5162 14.968C75.9642 15.28 75.6882 15.712 75.6882 16.264C75.6882 16.672 75.8322 16.996 76.1202 17.236C76.4202 17.476 76.8162 17.596 77.3082 17.596C77.9322 17.596 78.4782 17.404 78.9462 17.02C79.4022 16.66 79.6302 16.294 79.6302 15.922V14.644ZM84.3213 19C84.1053 19 83.9973 18.892 83.9973 18.676V9.766C83.9973 9.562 84.0813 9.46 84.2493 9.46H85.9953C86.1633 9.46 86.2473 9.55 86.2473 9.73V10.828C86.2473 10.924 86.2773 10.972 86.3373 10.972C86.3733 10.972 86.4213 10.942 86.4813 10.882C86.8773 10.378 87.3153 9.988 87.7953 9.712C88.2753 9.424 88.7433 9.28 89.1993 9.28C89.6313 9.28 89.8473 9.376 89.8473 9.568V11.296C89.8473 11.464 89.7693 11.536 89.6133 11.512C89.2773 11.428 88.9053 11.386 88.4973 11.386C88.1853 11.386 87.8553 11.47 87.5073 11.638C87.1713 11.806 86.8893 12.028 86.6613 12.304C86.4453 12.568 86.3373 12.844 86.3373 13.132V18.64C86.3373 18.88 86.1993 19 85.9233 19H84.3213ZM95.346 9.28C96.354 9.28 97.194 9.526 97.866 10.018C98.538 10.51 99.018 11.116 99.306 11.836L99.342 11.998C99.342 12.094 99.27 12.154 99.126 12.178L97.542 12.376L97.47 12.394C97.386 12.394 97.326 12.334 97.29 12.214C97.002 11.746 96.726 11.404 96.462 11.188C96.21 10.96 95.868 10.846 95.436 10.846C94.692 10.846 94.104 11.14 93.672 11.728C93.24 12.316 93.024 13.15 93.024 14.23C93.024 15.334 93.246 16.18 93.69 16.768C94.134 17.344 94.752 17.632 95.544 17.632C96.06 17.632 96.492 17.5 96.84 17.236C97.188 16.972 97.524 16.57 97.848 16.03C97.884 15.982 97.92 15.952 97.956 15.94C98.004 15.928 98.064 15.934 98.136 15.958L99.27 16.264C99.39 16.3 99.426 16.402 99.378 16.57C99.078 17.266 98.592 17.878 97.92 18.406C97.248 18.922 96.39 19.18 95.346 19.18C94.446 19.18 93.636 18.976 92.916 18.568C92.208 18.148 91.65 17.566 91.242 16.822C90.846 16.078 90.648 15.226 90.648 14.266C90.648 13.294 90.852 12.43 91.26 11.674C91.668 10.918 92.226 10.33 92.934 9.91C93.654 9.49 94.458 9.28 95.346 9.28ZM101.337 19C101.109 19 100.995 18.892 100.995 18.676V5.95C100.995 5.746 101.085 5.644 101.265 5.644H103.047C103.203 5.644 103.281 5.734 103.281 5.914V10.594C103.281 10.666 103.299 10.708 103.335 10.72C103.371 10.732 103.419 10.714 103.479 10.666C104.079 10.162 104.613 9.808 105.081 9.604C105.561 9.388 106.077 9.28 106.629 9.28C107.553 9.28 108.261 9.532 108.753 10.036C109.245 10.528 109.491 11.218 109.491 12.106V18.622C109.491 18.874 109.365 19 109.113 19H107.457C107.337 19 107.253 18.976 107.205 18.928C107.169 18.88 107.151 18.796 107.151 18.676V12.484C107.151 12.016 107.025 11.656 106.773 11.404C106.521 11.14 106.149 11.008 105.657 11.008C105.237 11.008 104.853 11.104 104.505 11.296C104.157 11.488 103.767 11.8 103.335 12.232V18.64C103.335 18.772 103.305 18.868 103.245 18.928C103.185 18.976 103.083 19 102.939 19H101.337Z" fill="#333333"/>
</svg>
