<svg width="505" height="25" viewBox="0 0 505 25" fill="none" xmlns="http://www.w3.org/2000/svg">
<path d="M11.934 9.712C11.934 10.996 11.49 11.986 10.602 12.682C9.726 13.378 8.556 13.726 7.092 13.726H4.266C4.146 13.726 4.086 13.786 4.086 13.906V18.64C4.086 18.88 3.954 19 3.69 19H1.746C1.53 19 1.422 18.892 1.422 18.676V5.95C1.422 5.746 1.512 5.644 1.692 5.644H6.786C8.31 5.644 9.546 5.986 10.494 6.67C11.454 7.354 11.934 8.368 11.934 9.712ZM9.198 9.658C9.198 8.95 8.97 8.428 8.514 8.092C8.058 7.744 7.434 7.57 6.642 7.57H4.392C4.188 7.57 4.086 7.666 4.086 7.858V11.494C4.086 11.602 4.104 11.68 4.14 11.728C4.176 11.776 4.236 11.8 4.32 11.8H6.75C7.506 11.8 8.1 11.62 8.532 11.26C8.976 10.888 9.198 10.354 9.198 9.658ZM14.167 19C13.951 19 13.843 18.892 13.843 18.676V9.766C13.843 9.562 13.927 9.46 14.095 9.46H15.841C16.009 9.46 16.093 9.55 16.093 9.73V10.828C16.093 10.924 16.123 10.972 16.183 10.972C16.219 10.972 16.267 10.942 16.327 10.882C16.723 10.378 17.161 9.988 17.641 9.712C18.121 9.424 18.589 9.28 19.045 9.28C19.477 9.28 19.693 9.376 19.693 9.568V11.296C19.693 11.464 19.615 11.536 19.459 11.512C19.123 11.428 18.751 11.386 18.343 11.386C18.031 11.386 17.701 11.47 17.353 11.638C17.017 11.806 16.735 12.028 16.507 12.304C16.291 12.568 16.183 12.844 16.183 13.132V18.64C16.183 18.88 16.045 19 15.769 19H14.167ZM25.2277 19.18C24.3037 19.18 23.4817 18.976 22.7617 18.568C22.0417 18.148 21.4837 17.566 21.0877 16.822C20.6917 16.078 20.4937 15.232 20.4937 14.284C20.4937 13.312 20.6977 12.448 21.1057 11.692C21.5137 10.924 22.0777 10.33 22.7977 9.91C23.5177 9.49 24.3337 9.28 25.2457 9.28C26.1697 9.28 26.9917 9.496 27.7117 9.928C28.4317 10.348 28.9897 10.936 29.3857 11.692C29.7817 12.448 29.9797 13.306 29.9797 14.266C29.9797 15.214 29.7757 16.06 29.3677 16.804C28.9717 17.548 28.4137 18.13 27.6937 18.55C26.9737 18.97 26.1517 19.18 25.2277 19.18ZM25.2457 17.578C26.0137 17.578 26.5957 17.29 26.9917 16.714C27.3997 16.138 27.6037 15.31 27.6037 14.23C27.6037 13.138 27.3997 12.298 26.9917 11.71C26.5837 11.122 26.0017 10.828 25.2457 10.828C24.4897 10.828 23.9017 11.122 23.4817 11.71C23.0737 12.298 22.8697 13.138 22.8697 14.23C22.8697 15.31 23.0737 16.138 23.4817 16.714C23.9017 17.29 24.4897 17.578 25.2457 17.578ZM36.7834 9.46C36.9754 9.46 37.0714 9.55 37.0714 9.73V10.864C37.0714 11.02 36.9814 11.098 36.8014 11.098H35.1274C35.0074 11.098 34.9474 11.158 34.9474 11.278V18.694C34.9474 18.898 34.8574 19 34.6774 19H32.8594C32.6914 19 32.6074 18.904 32.6074 18.712V11.26C32.6074 11.152 32.5654 11.098 32.4814 11.098H31.0234C30.8434 11.098 30.7534 11.02 30.7534 10.864V9.73C30.7534 9.55 30.8494 9.46 31.0414 9.46H32.4094C32.5414 9.46 32.6074 9.382 32.6074 9.226V8.056C32.6074 7.288 32.8234 6.694 33.2554 6.274C33.6874 5.854 34.2994 5.644 35.0914 5.644H36.8014C37.0294 5.644 37.1434 5.752 37.1434 5.968L37.1614 6.976C37.1614 7.048 37.1374 7.108 37.0894 7.156C37.0534 7.204 36.9934 7.228 36.9094 7.228H35.8474C35.5354 7.228 35.2954 7.336 35.1274 7.552C34.9714 7.756 34.8934 8.032 34.8934 8.38V9.28C34.8934 9.4 34.9594 9.46 35.0914 9.46H36.7834ZM40.9594 7.696C40.9594 7.84 40.9234 7.948 40.8514 8.02C40.7914 8.08 40.6834 8.11 40.5274 8.11H38.8894C38.7574 8.11 38.6674 8.08 38.6194 8.02C38.5714 7.96 38.5474 7.87 38.5474 7.75V5.986C38.5474 5.758 38.6434 5.644 38.8354 5.644H40.6894C40.7734 5.644 40.8394 5.674 40.8874 5.734C40.9354 5.782 40.9594 5.854 40.9594 5.95V7.696ZM40.9234 18.604C40.9234 18.748 40.8874 18.85 40.8154 18.91C40.7554 18.97 40.6474 19 40.4914 19H38.9254C38.7934 19 38.7034 18.976 38.6554 18.928C38.6074 18.88 38.5834 18.796 38.5834 18.676V9.766C38.5834 9.562 38.6734 9.46 38.8534 9.46H40.6714C40.8394 9.46 40.9234 9.556 40.9234 9.748V18.604ZM45.5385 18.604C45.5385 18.76 45.5085 18.868 45.4485 18.928C45.3885 18.976 45.2805 19 45.1245 19H43.5405C43.4085 19 43.3125 18.976 43.2525 18.928C43.2045 18.88 43.1805 18.796 43.1805 18.676L43.2345 5.95C43.2345 5.746 43.3245 5.644 43.5045 5.644H45.2865C45.4545 5.644 45.5385 5.74 45.5385 5.932V18.604ZM49.7655 14.968C49.7655 15.46 49.8795 15.904 50.1075 16.3C50.3355 16.684 50.6475 16.99 51.0435 17.218C51.4515 17.434 51.8955 17.542 52.3755 17.542C52.8675 17.542 53.3115 17.44 53.7075 17.236C54.1155 17.02 54.4995 16.69 54.8595 16.246C54.9195 16.186 54.9675 16.156 55.0035 16.156C55.0395 16.156 55.0935 16.174 55.1655 16.21L56.2635 16.696C56.3475 16.732 56.3895 16.786 56.3895 16.858C56.3895 16.894 56.3655 16.948 56.3175 17.02C55.7775 17.8 55.1775 18.358 54.5175 18.694C53.8695 19.018 53.0655 19.18 52.1055 19.18C51.1935 19.18 50.3715 18.976 49.6395 18.568C48.9195 18.16 48.3555 17.59 47.9475 16.858C47.5395 16.126 47.3355 15.292 47.3355 14.356C47.3355 13.348 47.5455 12.46 47.9655 11.692C48.3855 10.924 48.9555 10.33 49.6755 9.91C50.3955 9.49 51.1935 9.28 52.0695 9.28C52.9695 9.28 53.7615 9.478 54.4455 9.874C55.1415 10.27 55.6755 10.846 56.0475 11.602C56.4315 12.346 56.6235 13.234 56.6235 14.266V14.338C56.6235 14.458 56.6055 14.542 56.5695 14.59C56.5335 14.638 56.4555 14.668 56.3355 14.68H49.9635C49.8315 14.68 49.7655 14.776 49.7655 14.968ZM54.0315 13.348C54.1515 13.348 54.2295 13.336 54.2655 13.312C54.3135 13.276 54.3375 13.204 54.3375 13.096C54.3375 12.712 54.2535 12.34 54.0855 11.98C53.9175 11.62 53.6655 11.326 53.3295 11.098C53.0055 10.87 52.6155 10.756 52.1595 10.756C51.4515 10.756 50.8755 11.008 50.4315 11.512C49.9995 12.004 49.7895 12.616 49.8015 13.348H54.0315Z" fill="#333333"/>
<path d="M200.196 14.554C200.196 16.138 199.788 17.308 198.972 18.064C198.168 18.808 196.974 19.18 195.39 19.18C193.722 19.18 192.504 18.778 191.736 17.974C190.968 17.17 190.584 15.928 190.584 14.248V5.896C190.584 5.728 190.65 5.644 190.782 5.644H192.078C192.222 5.644 192.294 5.722 192.294 5.878V14.626C192.294 15.718 192.558 16.528 193.086 17.056C193.626 17.584 194.43 17.848 195.498 17.848C196.566 17.848 197.37 17.584 197.91 17.056C198.462 16.516 198.738 15.688 198.738 14.572V5.878C198.738 5.722 198.804 5.644 198.936 5.644H199.998C200.13 5.644 200.196 5.716 200.196 5.86V14.554ZM205.02 5.644C205.164 5.644 205.236 5.722 205.236 5.878V18.694C205.236 18.814 205.212 18.898 205.164 18.946C205.116 18.982 205.032 19 204.912 19H203.778C203.67 19 203.598 18.982 203.562 18.946C203.526 18.91 203.508 18.844 203.508 18.748V5.896C203.508 5.728 203.58 5.644 203.724 5.644H205.02ZM211.228 19.792C211.084 19.792 211.036 19.738 211.084 19.63L215.584 5.806C215.62 5.698 215.698 5.644 215.818 5.644H216.61C216.73 5.644 216.79 5.686 216.79 5.77C216.79 5.806 216.778 5.86 216.754 5.932L212.326 19.558C212.278 19.714 212.17 19.792 212.002 19.792H211.228ZM232.065 14.554C232.065 16.138 231.657 17.308 230.841 18.064C230.037 18.808 228.843 19.18 227.259 19.18C225.591 19.18 224.373 18.778 223.605 17.974C222.837 17.17 222.453 15.928 222.453 14.248V5.896C222.453 5.728 222.519 5.644 222.651 5.644H223.947C224.091 5.644 224.163 5.722 224.163 5.878V14.626C224.163 15.718 224.427 16.528 224.955 17.056C225.495 17.584 226.299 17.848 227.367 17.848C228.435 17.848 229.239 17.584 229.779 17.056C230.331 16.516 230.607 15.688 230.607 14.572V5.878C230.607 5.722 230.673 5.644 230.805 5.644H231.867C231.999 5.644 232.065 5.716 232.065 5.86V14.554ZM245.115 18.622C245.187 18.73 245.223 18.808 245.223 18.856C245.223 18.952 245.145 19 244.989 19H243.621C243.477 19 243.381 18.952 243.333 18.856L239.913 13.708C239.829 13.588 239.763 13.528 239.715 13.528C239.667 13.528 239.595 13.6 239.499 13.744L236.133 18.856C236.073 18.952 235.971 19 235.827 19H234.639C234.507 19 234.441 18.964 234.441 18.892C234.441 18.832 234.477 18.742 234.549 18.622L238.671 12.412C238.731 12.328 238.761 12.256 238.761 12.196C238.761 12.136 238.731 12.058 238.671 11.962L234.639 5.914C234.615 5.866 234.603 5.824 234.603 5.788C234.603 5.692 234.651 5.644 234.747 5.644H236.205C236.289 5.644 236.349 5.656 236.385 5.68C236.433 5.704 236.475 5.746 236.511 5.806L239.661 10.612C239.709 10.696 239.763 10.738 239.823 10.738C239.895 10.738 239.955 10.696 240.003 10.612L243.153 5.806C243.213 5.698 243.309 5.644 243.441 5.644H244.755C244.827 5.644 244.869 5.668 244.881 5.716C244.893 5.764 244.881 5.818 244.845 5.878L240.849 11.836C240.801 11.896 240.777 11.962 240.777 12.034C240.777 12.106 240.801 12.172 240.849 12.232L245.115 18.622ZM251.637 5.896C251.637 5.8 251.649 5.734 251.673 5.698C251.709 5.662 251.769 5.644 251.853 5.644H259.935C260.055 5.644 260.115 5.71 260.115 5.842V6.76C260.115 6.904 260.037 6.976 259.881 6.976H253.599C253.503 6.976 253.437 6.994 253.401 7.03C253.377 7.054 253.365 7.108 253.365 7.192V11.404C253.365 11.536 253.431 11.602 253.563 11.602H258.225C258.357 11.602 258.423 11.668 258.423 11.8V12.754C258.423 12.862 258.357 12.916 258.225 12.916H253.563C253.431 12.916 253.365 12.982 253.365 13.114V17.488C253.365 17.56 253.377 17.608 253.401 17.632C253.425 17.656 253.473 17.668 253.545 17.668H260.151C260.223 17.668 260.271 17.68 260.295 17.704C260.331 17.728 260.349 17.776 260.349 17.848V18.802C260.349 18.934 260.283 19 260.151 19H251.889C251.793 19 251.727 18.982 251.691 18.946C251.655 18.91 251.637 18.844 251.637 18.748V5.896ZM262.831 19C262.663 19 262.579 18.922 262.579 18.766V9.694C262.579 9.538 262.645 9.46 262.777 9.46H263.857C263.989 9.46 264.055 9.526 264.055 9.658V10.702C264.055 10.834 264.109 10.852 264.217 10.756C264.889 10.228 265.459 9.85 265.927 9.622C266.407 9.394 266.941 9.28 267.529 9.28C268.441 9.28 269.149 9.526 269.653 10.018C270.169 10.51 270.427 11.17 270.427 11.998V18.712C270.427 18.904 270.337 19 270.157 19H269.149C268.993 19 268.915 18.922 268.915 18.766V12.34C268.915 11.74 268.759 11.278 268.447 10.954C268.147 10.63 267.679 10.468 267.043 10.468C266.539 10.468 266.071 10.582 265.639 10.81C265.219 11.026 264.703 11.398 264.091 11.926V18.73C264.091 18.826 264.067 18.898 264.019 18.946C263.983 18.982 263.917 19 263.821 19H262.831ZM281.713 9.298C281.941 9.298 282.055 9.394 282.055 9.586V10.216C282.055 10.336 282.025 10.426 281.965 10.486C281.917 10.534 281.827 10.552 281.695 10.54C281.299 10.54 280.987 10.594 280.759 10.702C280.471 10.822 280.351 10.96 280.399 11.116C280.411 11.164 280.447 11.254 280.507 11.386C280.567 11.518 280.615 11.668 280.651 11.836C280.687 11.992 280.705 12.16 280.705 12.34C280.705 13.192 280.369 13.888 279.697 14.428C279.037 14.968 278.071 15.238 276.799 15.238C275.947 15.238 275.335 15.31 274.963 15.454C274.591 15.598 274.405 15.784 274.405 16.012C274.405 16.192 274.531 16.33 274.783 16.426C275.035 16.51 275.455 16.57 276.043 16.606L278.365 16.732C279.397 16.792 280.165 17.038 280.669 17.47C281.173 17.902 281.425 18.49 281.425 19.234C281.425 20.146 281.023 20.86 280.219 21.376C279.427 21.892 278.293 22.15 276.817 22.15C275.293 22.15 274.129 21.928 273.325 21.484C272.533 21.052 272.137 20.428 272.137 19.612C272.137 18.808 272.701 18.13 273.829 17.578C273.961 17.518 273.961 17.452 273.829 17.38C273.277 17.14 273.001 16.786 273.001 16.318C273.001 16.054 273.121 15.802 273.361 15.562C273.613 15.322 273.967 15.124 274.423 14.968C274.483 14.956 274.513 14.926 274.513 14.878C274.513 14.818 274.483 14.776 274.423 14.752C273.895 14.476 273.505 14.146 273.253 13.762C273.001 13.366 272.875 12.892 272.875 12.34C272.875 11.404 273.229 10.666 273.937 10.126C274.645 9.586 275.647 9.316 276.943 9.316C278.083 9.316 278.983 9.586 279.643 10.126C279.727 10.186 279.787 10.216 279.823 10.216C279.871 10.216 279.937 10.186 280.021 10.126C280.249 9.898 280.513 9.706 280.813 9.55C281.125 9.382 281.425 9.298 281.713 9.298ZM276.799 14.284C277.627 14.284 278.245 14.116 278.653 13.78C279.073 13.444 279.283 12.958 279.283 12.322C279.283 11.674 279.073 11.17 278.653 10.81C278.233 10.45 277.615 10.27 276.799 10.27C276.007 10.27 275.389 10.456 274.945 10.828C274.501 11.188 274.279 11.686 274.279 12.322C274.279 12.946 274.495 13.432 274.927 13.78C275.371 14.116 275.995 14.284 276.799 14.284ZM275.215 17.83C274.999 17.818 274.753 17.884 274.477 18.028C274.201 18.16 273.967 18.352 273.775 18.604C273.583 18.856 273.487 19.132 273.487 19.432C273.487 20.008 273.781 20.446 274.369 20.746C274.957 21.058 275.827 21.214 276.979 21.214C279.007 21.214 280.021 20.614 280.021 19.414C280.021 18.994 279.877 18.664 279.589 18.424C279.313 18.184 278.857 18.046 278.221 18.01L275.215 17.83ZM285.503 7.408C285.503 7.528 285.479 7.618 285.431 7.678C285.383 7.726 285.299 7.75 285.179 7.75H284.135C283.955 7.75 283.865 7.648 283.865 7.444V5.932C283.865 5.74 283.949 5.644 284.117 5.644H285.251C285.323 5.644 285.383 5.668 285.431 5.716C285.479 5.764 285.503 5.83 285.503 5.914V7.408ZM285.431 18.694C285.431 18.814 285.407 18.898 285.359 18.946C285.311 18.982 285.227 19 285.107 19H284.189C284.081 19 284.009 18.982 283.973 18.946C283.937 18.91 283.919 18.844 283.919 18.748V9.712C283.919 9.544 283.991 9.46 284.135 9.46H285.233C285.365 9.46 285.431 9.538 285.431 9.694V18.694ZM288.478 19C288.31 19 288.226 18.922 288.226 18.766V9.694C288.226 9.538 288.292 9.46 288.424 9.46H289.504C289.636 9.46 289.702 9.526 289.702 9.658V10.702C289.702 10.834 289.756 10.852 289.864 10.756C290.536 10.228 291.106 9.85 291.574 9.622C292.054 9.394 292.588 9.28 293.176 9.28C294.088 9.28 294.796 9.526 295.3 10.018C295.816 10.51 296.074 11.17 296.074 11.998V18.712C296.074 18.904 295.984 19 295.804 19H294.796C294.64 19 294.562 18.922 294.562 18.766V12.34C294.562 11.74 294.406 11.278 294.094 10.954C293.794 10.63 293.326 10.468 292.69 10.468C292.186 10.468 291.718 10.582 291.286 10.81C290.866 11.026 290.35 11.398 289.738 11.926V18.73C289.738 18.826 289.714 18.898 289.666 18.946C289.63 18.982 289.564 19 289.468 19H288.478ZM299.746 14.824C299.746 15.4 299.884 15.934 300.16 16.426C300.448 16.918 300.832 17.308 301.312 17.596C301.792 17.884 302.32 18.028 302.896 18.028C304.096 18.028 305.032 17.53 305.704 16.534C305.752 16.486 305.794 16.462 305.83 16.462C305.866 16.45 305.908 16.456 305.956 16.48L306.712 16.858C306.808 16.918 306.82 17.002 306.748 17.11C306.28 17.83 305.722 18.358 305.074 18.694C304.426 19.018 303.652 19.18 302.752 19.18C301.876 19.18 301.09 18.976 300.394 18.568C299.698 18.16 299.152 17.59 298.756 16.858C298.372 16.114 298.18 15.268 298.18 14.32C298.18 13.3 298.378 12.412 298.774 11.656C299.17 10.888 299.71 10.3 300.394 9.892C301.09 9.484 301.87 9.28 302.734 9.28C303.598 9.28 304.354 9.472 305.002 9.856C305.662 10.24 306.172 10.804 306.532 11.548C306.892 12.28 307.072 13.15 307.072 14.158V14.23C307.072 14.338 307.054 14.422 307.018 14.482C306.982 14.53 306.91 14.554 306.802 14.554H299.908C299.8 14.554 299.746 14.644 299.746 14.824ZM305.254 13.564C305.386 13.564 305.47 13.552 305.506 13.528C305.542 13.492 305.56 13.42 305.56 13.312C305.56 12.784 305.446 12.298 305.218 11.854C305.002 11.398 304.678 11.038 304.246 10.774C303.826 10.498 303.334 10.36 302.77 10.36C302.158 10.36 301.624 10.516 301.168 10.828C300.712 11.128 300.364 11.524 300.124 12.016C299.884 12.496 299.77 13.012 299.782 13.564H305.254ZM310.205 14.824C310.205 15.4 310.343 15.934 310.619 16.426C310.907 16.918 311.291 17.308 311.771 17.596C312.251 17.884 312.779 18.028 313.355 18.028C314.555 18.028 315.491 17.53 316.163 16.534C316.211 16.486 316.253 16.462 316.289 16.462C316.325 16.45 316.367 16.456 316.415 16.48L317.171 16.858C317.267 16.918 317.279 17.002 317.207 17.11C316.739 17.83 316.181 18.358 315.533 18.694C314.885 19.018 314.111 19.18 313.211 19.18C312.335 19.18 311.549 18.976 310.853 18.568C310.157 18.16 309.611 17.59 309.215 16.858C308.831 16.114 308.639 15.268 308.639 14.32C308.639 13.3 308.837 12.412 309.233 11.656C309.629 10.888 310.169 10.3 310.853 9.892C311.549 9.484 312.329 9.28 313.193 9.28C314.057 9.28 314.813 9.472 315.461 9.856C316.121 10.24 316.631 10.804 316.991 11.548C317.351 12.28 317.531 13.15 317.531 14.158V14.23C317.531 14.338 317.513 14.422 317.477 14.482C317.441 14.53 317.369 14.554 317.261 14.554H310.367C310.259 14.554 310.205 14.644 310.205 14.824ZM315.713 13.564C315.845 13.564 315.929 13.552 315.965 13.528C316.001 13.492 316.019 13.42 316.019 13.312C316.019 12.784 315.905 12.298 315.677 11.854C315.461 11.398 315.137 11.038 314.705 10.774C314.285 10.498 313.793 10.36 313.229 10.36C312.617 10.36 312.083 10.516 311.627 10.828C311.171 11.128 310.823 11.524 310.583 12.016C310.343 12.496 310.229 13.012 310.241 13.564H315.713ZM319.908 19C319.74 19 319.656 18.922 319.656 18.766V9.694C319.656 9.538 319.722 9.46 319.854 9.46H320.898C321.03 9.46 321.096 9.526 321.096 9.658V10.828C321.096 10.9 321.114 10.942 321.15 10.954C321.198 10.966 321.246 10.942 321.294 10.882C322.206 9.814 323.136 9.28 324.084 9.28C324.504 9.28 324.714 9.358 324.714 9.514V10.594C324.714 10.714 324.66 10.762 324.552 10.738C324.336 10.702 324.066 10.684 323.742 10.684C323.394 10.684 323.016 10.786 322.608 10.99C322.2 11.194 321.858 11.458 321.582 11.782C321.306 12.106 321.168 12.436 321.168 12.772V18.73C321.168 18.91 321.078 19 320.898 19H319.908ZM324.602 21.574C324.542 21.574 324.5 21.55 324.476 21.502C324.452 21.454 324.452 21.388 324.476 21.304L325.286 19.288C325.322 19.216 325.34 19.162 325.34 19.126C325.34 19.042 325.274 19 325.142 19H324.908C324.752 19 324.674 18.928 324.674 18.784V17.182C324.674 17.05 324.734 16.984 324.854 16.984H326.348C326.468 16.984 326.528 17.044 326.528 17.164V18.64C326.528 18.724 326.51 18.796 326.474 18.856L325.16 21.376C325.088 21.508 324.968 21.574 324.8 21.574H324.602ZM333.094 5.896C333.094 5.728 333.166 5.644 333.31 5.644H341.23C341.35 5.644 341.41 5.71 341.41 5.842V6.76C341.41 6.904 341.332 6.976 341.176 6.976H335.056C334.96 6.976 334.894 6.994 334.858 7.03C334.834 7.054 334.822 7.108 334.822 7.192V11.62C334.822 11.752 334.888 11.818 335.02 11.818H339.826C339.958 11.818 340.024 11.878 340.024 11.998V12.952C340.024 13.012 340.006 13.054 339.97 13.078C339.946 13.102 339.898 13.114 339.826 13.114H335.02C334.888 13.114 334.822 13.18 334.822 13.312V18.766C334.822 18.922 334.738 19 334.57 19H333.346C333.25 19 333.184 18.982 333.148 18.946C333.112 18.91 333.094 18.844 333.094 18.748V5.896ZM342.812 19C342.644 19 342.56 18.922 342.56 18.766V9.694C342.56 9.538 342.626 9.46 342.758 9.46H343.802C343.934 9.46 344 9.526 344 9.658V10.828C344 10.9 344.018 10.942 344.054 10.954C344.102 10.966 344.15 10.942 344.198 10.882C345.11 9.814 346.04 9.28 346.988 9.28C347.408 9.28 347.618 9.358 347.618 9.514V10.594C347.618 10.714 347.564 10.762 347.456 10.738C347.24 10.702 346.97 10.684 346.646 10.684C346.298 10.684 345.92 10.786 345.512 10.99C345.104 11.194 344.762 11.458 344.486 11.782C344.21 12.106 344.072 12.436 344.072 12.772V18.73C344.072 18.91 343.982 19 343.802 19H342.812ZM353.218 19.18C352.318 19.18 351.52 18.976 350.824 18.568C350.14 18.148 349.606 17.566 349.222 16.822C348.85 16.078 348.664 15.232 348.664 14.284C348.664 13.312 348.856 12.448 349.24 11.692C349.636 10.936 350.176 10.348 350.86 9.928C351.556 9.496 352.348 9.28 353.236 9.28C354.124 9.28 354.91 9.496 355.594 9.928C356.29 10.348 356.824 10.936 357.196 11.692C357.58 12.448 357.772 13.306 357.772 14.266C357.772 15.214 357.58 16.06 357.196 16.804C356.812 17.548 356.272 18.13 355.576 18.55C354.892 18.97 354.106 19.18 353.218 19.18ZM353.254 18.046C354.19 18.046 354.916 17.71 355.432 17.038C355.96 16.354 356.224 15.418 356.224 14.23C356.224 13.054 355.954 12.124 355.414 11.44C354.886 10.744 354.16 10.396 353.236 10.396C352.3 10.396 351.562 10.744 351.022 11.44C350.482 12.124 350.212 13.054 350.212 14.23C350.212 15.406 350.482 16.336 351.022 17.02C351.562 17.704 352.306 18.046 353.254 18.046ZM360.249 19C360.081 19 359.997 18.922 359.997 18.766V9.694C359.997 9.538 360.063 9.46 360.195 9.46H361.275C361.407 9.46 361.473 9.526 361.473 9.658V10.702C361.473 10.834 361.527 10.852 361.635 10.756C362.307 10.228 362.877 9.85 363.345 9.622C363.825 9.394 364.359 9.28 364.947 9.28C365.859 9.28 366.567 9.526 367.071 10.018C367.587 10.51 367.845 11.17 367.845 11.998V18.712C367.845 18.904 367.755 19 367.575 19H366.567C366.411 19 366.333 18.922 366.333 18.766V12.34C366.333 11.74 366.177 11.278 365.865 10.954C365.565 10.63 365.097 10.468 364.461 10.468C363.957 10.468 363.489 10.582 363.057 10.81C362.637 11.026 362.121 11.398 361.509 11.926V18.73C361.509 18.826 361.485 18.898 361.437 18.946C361.401 18.982 361.335 19 361.239 19H360.249ZM373.029 10.576C372.933 10.576 372.885 10.63 372.885 10.738V16.444C372.885 16.984 372.975 17.356 373.155 17.56C373.335 17.764 373.629 17.866 374.037 17.866H375.279C375.411 17.866 375.477 17.932 375.477 18.064L375.459 18.676C375.459 18.796 375.387 18.874 375.243 18.91C374.931 18.97 374.367 19 373.551 19C372.795 19 372.243 18.826 371.895 18.478C371.547 18.118 371.373 17.554 371.373 16.786V10.774C371.373 10.642 371.313 10.576 371.193 10.576H369.753C369.621 10.576 369.555 10.516 369.555 10.396V9.64C369.555 9.52 369.615 9.46 369.735 9.46H371.265C371.349 9.46 371.391 9.412 371.391 9.316L371.589 6.454C371.589 6.298 371.655 6.22 371.787 6.22H372.687C372.831 6.22 372.903 6.304 372.903 6.472V9.316C372.903 9.412 372.951 9.46 373.047 9.46H375.315C375.447 9.46 375.513 9.514 375.513 9.622V10.396C375.513 10.516 375.447 10.576 375.315 10.576H373.029ZM381.826 14.59C381.826 14.758 381.724 14.842 381.52 14.842H377.434C377.35 14.842 377.29 14.83 377.254 14.806C377.218 14.77 377.2 14.71 377.2 14.626V13.834C377.2 13.702 377.254 13.636 377.362 13.636L381.646 13.618C381.766 13.618 381.826 13.678 381.826 13.798V14.59ZM385.333 14.824C385.333 15.4 385.471 15.934 385.747 16.426C386.035 16.918 386.419 17.308 386.899 17.596C387.379 17.884 387.907 18.028 388.483 18.028C389.683 18.028 390.619 17.53 391.291 16.534C391.339 16.486 391.381 16.462 391.417 16.462C391.453 16.45 391.495 16.456 391.543 16.48L392.299 16.858C392.395 16.918 392.407 17.002 392.335 17.11C391.867 17.83 391.309 18.358 390.661 18.694C390.013 19.018 389.239 19.18 388.339 19.18C387.463 19.18 386.677 18.976 385.981 18.568C385.285 18.16 384.739 17.59 384.343 16.858C383.959 16.114 383.767 15.268 383.767 14.32C383.767 13.3 383.965 12.412 384.361 11.656C384.757 10.888 385.297 10.3 385.981 9.892C386.677 9.484 387.457 9.28 388.321 9.28C389.185 9.28 389.941 9.472 390.589 9.856C391.249 10.24 391.759 10.804 392.119 11.548C392.479 12.28 392.659 13.15 392.659 14.158V14.23C392.659 14.338 392.641 14.422 392.605 14.482C392.569 14.53 392.497 14.554 392.389 14.554H385.495C385.387 14.554 385.333 14.644 385.333 14.824ZM390.841 13.564C390.973 13.564 391.057 13.552 391.093 13.528C391.129 13.492 391.147 13.42 391.147 13.312C391.147 12.784 391.033 12.298 390.805 11.854C390.589 11.398 390.265 11.038 389.833 10.774C389.413 10.498 388.921 10.36 388.357 10.36C387.745 10.36 387.211 10.516 386.755 10.828C386.299 11.128 385.951 11.524 385.711 12.016C385.471 12.496 385.357 13.012 385.369 13.564H390.841ZM395.036 19C394.868 19 394.784 18.922 394.784 18.766V9.694C394.784 9.538 394.85 9.46 394.982 9.46H396.062C396.194 9.46 396.26 9.526 396.26 9.658V10.702C396.26 10.834 396.314 10.852 396.422 10.756C397.094 10.228 397.664 9.85 398.132 9.622C398.612 9.394 399.146 9.28 399.734 9.28C400.646 9.28 401.354 9.526 401.858 10.018C402.374 10.51 402.632 11.17 402.632 11.998V18.712C402.632 18.904 402.542 19 402.362 19H401.354C401.198 19 401.12 18.922 401.12 18.766V12.34C401.12 11.74 400.964 11.278 400.652 10.954C400.352 10.63 399.884 10.468 399.248 10.468C398.744 10.468 398.276 10.582 397.844 10.81C397.424 11.026 396.908 11.398 396.296 11.926V18.73C396.296 18.826 396.272 18.898 396.224 18.946C396.188 18.982 396.122 19 396.026 19H395.036ZM412.082 19C411.914 19 411.83 18.916 411.83 18.748V17.974C411.83 17.866 411.8 17.812 411.74 17.812C411.704 17.812 411.656 17.842 411.596 17.902C411.236 18.262 410.84 18.568 410.408 18.82C409.988 19.06 409.442 19.18 408.77 19.18C408.002 19.18 407.318 19 406.718 18.64C406.118 18.28 405.644 17.74 405.296 17.02C404.948 16.288 404.774 15.406 404.774 14.374C404.774 13.366 404.954 12.478 405.314 11.71C405.674 10.942 406.172 10.348 406.808 9.928C407.444 9.496 408.17 9.28 408.986 9.28C409.526 9.28 409.994 9.364 410.39 9.532C410.786 9.7 411.158 9.934 411.506 10.234C411.602 10.306 411.668 10.342 411.704 10.342C411.764 10.342 411.794 10.264 411.794 10.108V5.878C411.794 5.722 411.86 5.644 411.992 5.644H413.09C413.222 5.644 413.288 5.722 413.288 5.878V18.712C413.288 18.82 413.27 18.898 413.234 18.946C413.198 18.982 413.12 19 413 19H412.082ZM411.776 11.566C411.392 11.182 411.002 10.894 410.606 10.702C410.222 10.498 409.802 10.396 409.346 10.396C408.434 10.396 407.702 10.738 407.15 11.422C406.598 12.106 406.322 13.072 406.322 14.32C406.322 15.58 406.592 16.522 407.132 17.146C407.684 17.77 408.386 18.082 409.238 18.082C409.706 18.082 410.132 17.974 410.516 17.758C410.912 17.53 411.218 17.248 411.434 16.912C411.662 16.576 411.776 16.24 411.776 15.904V11.566ZM420.551 5.644C421.739 5.644 422.681 5.65 423.377 5.662C425.801 5.698 427.571 6.262 428.687 7.354C429.815 8.446 430.379 10.078 430.379 12.25C430.379 16.75 427.985 19 423.197 19H420.551C420.383 19 420.299 18.904 420.299 18.712V5.878C420.299 5.794 420.317 5.734 420.353 5.698C420.389 5.662 420.455 5.644 420.551 5.644ZM422.171 6.958C422.075 6.958 422.027 7.042 422.027 7.21V17.506C422.027 17.578 422.039 17.632 422.063 17.668C422.099 17.692 422.159 17.704 422.243 17.704H422.927C424.271 17.704 425.351 17.53 426.167 17.182C426.995 16.822 427.601 16.246 427.985 15.454C428.381 14.662 428.579 13.606 428.579 12.286C428.579 10.966 428.393 9.928 428.021 9.172C427.649 8.404 427.079 7.858 426.311 7.534C425.555 7.198 424.547 7.012 423.287 6.976C423.047 6.964 422.675 6.958 422.171 6.958ZM433.937 14.824C433.937 15.4 434.075 15.934 434.351 16.426C434.639 16.918 435.023 17.308 435.503 17.596C435.983 17.884 436.511 18.028 437.087 18.028C438.287 18.028 439.223 17.53 439.895 16.534C439.943 16.486 439.985 16.462 440.021 16.462C440.057 16.45 440.099 16.456 440.147 16.48L440.903 16.858C440.999 16.918 441.011 17.002 440.939 17.11C440.471 17.83 439.913 18.358 439.265 18.694C438.617 19.018 437.843 19.18 436.943 19.18C436.067 19.18 435.281 18.976 434.585 18.568C433.889 18.16 433.343 17.59 432.947 16.858C432.563 16.114 432.371 15.268 432.371 14.32C432.371 13.3 432.569 12.412 432.965 11.656C433.361 10.888 433.901 10.3 434.585 9.892C435.281 9.484 436.061 9.28 436.925 9.28C437.789 9.28 438.545 9.472 439.193 9.856C439.853 10.24 440.363 10.804 440.723 11.548C441.083 12.28 441.263 13.15 441.263 14.158V14.23C441.263 14.338 441.245 14.422 441.209 14.482C441.173 14.53 441.101 14.554 440.993 14.554H434.099C433.991 14.554 433.937 14.644 433.937 14.824ZM439.445 13.564C439.577 13.564 439.661 13.552 439.697 13.528C439.733 13.492 439.751 13.42 439.751 13.312C439.751 12.784 439.637 12.298 439.409 11.854C439.193 11.398 438.869 11.038 438.437 10.774C438.017 10.498 437.525 10.36 436.961 10.36C436.349 10.36 435.815 10.516 435.359 10.828C434.903 11.128 434.555 11.524 434.315 12.016C434.075 12.496 433.961 13.012 433.973 13.564H439.445ZM451.146 9.46C451.23 9.46 451.284 9.49 451.308 9.55C451.344 9.598 451.35 9.652 451.326 9.712L447.672 18.73C447.612 18.91 447.474 19 447.258 19H446.61C446.382 19 446.232 18.916 446.16 18.748L442.524 9.73C442.512 9.706 442.506 9.676 442.506 9.64C442.506 9.52 442.578 9.46 442.722 9.46H443.838C443.97 9.46 444.066 9.526 444.126 9.658L446.952 16.732C446.988 16.852 447.03 16.912 447.078 16.912C447.126 16.912 447.18 16.846 447.24 16.714L450.048 9.658C450.084 9.526 450.174 9.46 450.318 9.46H451.146ZM453.695 14.824C453.695 15.4 453.833 15.934 454.109 16.426C454.397 16.918 454.781 17.308 455.261 17.596C455.741 17.884 456.269 18.028 456.845 18.028C458.045 18.028 458.981 17.53 459.653 16.534C459.701 16.486 459.743 16.462 459.779 16.462C459.815 16.45 459.857 16.456 459.905 16.48L460.661 16.858C460.757 16.918 460.769 17.002 460.697 17.11C460.229 17.83 459.671 18.358 459.023 18.694C458.375 19.018 457.601 19.18 456.701 19.18C455.825 19.18 455.039 18.976 454.343 18.568C453.647 18.16 453.101 17.59 452.705 16.858C452.321 16.114 452.129 15.268 452.129 14.32C452.129 13.3 452.327 12.412 452.723 11.656C453.119 10.888 453.659 10.3 454.343 9.892C455.039 9.484 455.819 9.28 456.683 9.28C457.547 9.28 458.303 9.472 458.951 9.856C459.611 10.24 460.121 10.804 460.481 11.548C460.841 12.28 461.021 13.15 461.021 14.158V14.23C461.021 14.338 461.003 14.422 460.967 14.482C460.931 14.53 460.859 14.554 460.751 14.554H453.857C453.749 14.554 453.695 14.644 453.695 14.824ZM459.203 13.564C459.335 13.564 459.419 13.552 459.455 13.528C459.491 13.492 459.509 13.42 459.509 13.312C459.509 12.784 459.395 12.298 459.167 11.854C458.951 11.398 458.627 11.038 458.195 10.774C457.775 10.498 457.283 10.36 456.719 10.36C456.107 10.36 455.573 10.516 455.117 10.828C454.661 11.128 454.313 11.524 454.073 12.016C453.833 12.496 453.719 13.012 453.731 13.564H459.203ZM464.676 18.694C464.676 18.814 464.652 18.898 464.604 18.946C464.556 18.982 464.472 19 464.352 19H463.416C463.308 19 463.236 18.982 463.2 18.946C463.164 18.91 463.146 18.844 463.146 18.748L463.164 5.896C463.164 5.728 463.236 5.644 463.38 5.644H464.46C464.604 5.644 464.676 5.722 464.676 5.878V18.694ZM471.448 19.18C470.548 19.18 469.75 18.976 469.054 18.568C468.37 18.148 467.836 17.566 467.452 16.822C467.08 16.078 466.894 15.232 466.894 14.284C466.894 13.312 467.086 12.448 467.47 11.692C467.866 10.936 468.406 10.348 469.09 9.928C469.786 9.496 470.578 9.28 471.466 9.28C472.354 9.28 473.14 9.496 473.824 9.928C474.52 10.348 475.054 10.936 475.426 11.692C475.81 12.448 476.002 13.306 476.002 14.266C476.002 15.214 475.81 16.06 475.426 16.804C475.042 17.548 474.502 18.13 473.806 18.55C473.122 18.97 472.336 19.18 471.448 19.18ZM471.484 18.046C472.42 18.046 473.146 17.71 473.662 17.038C474.19 16.354 474.454 15.418 474.454 14.23C474.454 13.054 474.184 12.124 473.644 11.44C473.116 10.744 472.39 10.396 471.466 10.396C470.53 10.396 469.792 10.744 469.252 11.44C468.712 12.124 468.442 13.054 468.442 14.23C468.442 15.406 468.712 16.336 469.252 17.02C469.792 17.704 470.536 18.046 471.484 18.046ZM479.47 9.46C479.638 9.46 479.722 9.55 479.722 9.73V10.486C479.722 10.594 479.752 10.648 479.812 10.648C479.848 10.648 479.896 10.618 479.956 10.558C480.208 10.306 480.43 10.102 480.622 9.946C480.814 9.79 481.096 9.64 481.468 9.496C481.84 9.352 482.278 9.28 482.782 9.28C483.538 9.28 484.21 9.46 484.798 9.82C485.398 10.18 485.866 10.72 486.202 11.44C486.55 12.16 486.724 13.042 486.724 14.086C486.724 15.142 486.55 16.054 486.202 16.822C485.866 17.59 485.386 18.178 484.762 18.586C484.138 18.982 483.412 19.18 482.584 19.18C481.588 19.18 480.736 18.88 480.028 18.28C479.944 18.196 479.878 18.154 479.83 18.154C479.77 18.154 479.74 18.232 479.74 18.388V21.736C479.74 21.892 479.674 21.97 479.542 21.97H478.426C478.294 21.97 478.228 21.892 478.228 21.736V9.748C478.228 9.652 478.246 9.58 478.282 9.532C478.33 9.484 478.408 9.46 478.516 9.46H479.47ZM479.74 16.894C480.124 17.29 480.508 17.59 480.892 17.794C481.288 17.986 481.72 18.082 482.188 18.082C483.088 18.082 483.808 17.74 484.348 17.056C484.9 16.372 485.176 15.388 485.176 14.104C485.176 12.856 484.906 11.926 484.366 11.314C483.826 10.69 483.13 10.378 482.278 10.378C481.798 10.378 481.366 10.486 480.982 10.702C480.598 10.906 480.292 11.17 480.064 11.494C479.848 11.818 479.74 12.136 479.74 12.448V16.894ZM489.976 14.824C489.976 15.4 490.114 15.934 490.39 16.426C490.678 16.918 491.062 17.308 491.542 17.596C492.022 17.884 492.55 18.028 493.126 18.028C494.326 18.028 495.262 17.53 495.934 16.534C495.982 16.486 496.024 16.462 496.06 16.462C496.096 16.45 496.138 16.456 496.186 16.48L496.942 16.858C497.038 16.918 497.05 17.002 496.978 17.11C496.51 17.83 495.952 18.358 495.304 18.694C494.656 19.018 493.882 19.18 492.982 19.18C492.106 19.18 491.32 18.976 490.624 18.568C489.928 18.16 489.382 17.59 488.986 16.858C488.602 16.114 488.41 15.268 488.41 14.32C488.41 13.3 488.608 12.412 489.004 11.656C489.4 10.888 489.94 10.3 490.624 9.892C491.32 9.484 492.1 9.28 492.964 9.28C493.828 9.28 494.584 9.472 495.232 9.856C495.892 10.24 496.402 10.804 496.762 11.548C497.122 12.28 497.302 13.15 497.302 14.158V14.23C497.302 14.338 497.284 14.422 497.248 14.482C497.212 14.53 497.14 14.554 497.032 14.554H490.138C490.03 14.554 489.976 14.644 489.976 14.824ZM495.484 13.564C495.616 13.564 495.7 13.552 495.736 13.528C495.772 13.492 495.79 13.42 495.79 13.312C495.79 12.784 495.676 12.298 495.448 11.854C495.232 11.398 494.908 11.038 494.476 10.774C494.056 10.498 493.564 10.36 493 10.36C492.388 10.36 491.854 10.516 491.398 10.828C490.942 11.128 490.594 11.524 490.354 12.016C490.114 12.496 490 13.012 490.012 13.564H495.484ZM499.679 19C499.511 19 499.427 18.922 499.427 18.766V9.694C499.427 9.538 499.493 9.46 499.625 9.46H500.669C500.801 9.46 500.867 9.526 500.867 9.658V10.828C500.867 10.9 500.885 10.942 500.921 10.954C500.969 10.966 501.017 10.942 501.065 10.882C501.977 9.814 502.907 9.28 503.855 9.28C504.275 9.28 504.485 9.358 504.485 9.514V10.594C504.485 10.714 504.431 10.762 504.323 10.738C504.107 10.702 503.837 10.684 503.513 10.684C503.165 10.684 502.787 10.786 502.379 10.99C501.971 11.194 501.629 11.458 501.353 11.782C501.077 12.106 500.939 12.436 500.939 12.772V18.73C500.939 18.91 500.849 19 500.669 19H499.679Z" fill="#333333"/>
</svg>
