<svg width="635" height="70" viewBox="0 0 635 70" fill="none" xmlns="http://www.w3.org/2000/svg">
<rect x="189" width="446" height="24" fill="#F5D6AB"/>
<rect x="189" width="351" height="24" fill="#C66C49"/>
<path d="M0.648 50.932C0.648 50.74 0.75 50.644 0.954 50.644H11.07C11.274 50.644 11.376 50.74 11.376 50.932V52.336C11.376 52.504 11.28 52.588 11.088 52.588H7.632C7.56 52.588 7.506 52.6 7.47 52.624C7.446 52.648 7.434 52.696 7.434 52.768V63.694C7.434 63.898 7.344 64 7.164 64H5.022C4.854 64 4.77 63.904 4.77 63.712V52.804C4.77 52.72 4.752 52.666 4.716 52.642C4.692 52.606 4.644 52.588 4.572 52.588H0.954C0.846 52.588 0.768 52.57 0.72 52.534C0.672 52.498 0.648 52.432 0.648 52.336V50.932ZM15.4015 64.18C14.4775 64.18 13.6555 63.976 12.9355 63.568C12.2155 63.148 11.6575 62.566 11.2615 61.822C10.8655 61.078 10.6675 60.232 10.6675 59.284C10.6675 58.312 10.8715 57.448 11.2795 56.692C11.6875 55.924 12.2515 55.33 12.9715 54.91C13.6915 54.49 14.5075 54.28 15.4195 54.28C16.3435 54.28 17.1655 54.496 17.8855 54.928C18.6055 55.348 19.1635 55.936 19.5595 56.692C19.9555 57.448 20.1535 58.306 20.1535 59.266C20.1535 60.214 19.9495 61.06 19.5415 61.804C19.1455 62.548 18.5875 63.13 17.8675 63.55C17.1475 63.97 16.3255 64.18 15.4015 64.18ZM15.4195 62.578C16.1875 62.578 16.7695 62.29 17.1655 61.714C17.5735 61.138 17.7775 60.31 17.7775 59.23C17.7775 58.138 17.5735 57.298 17.1655 56.71C16.7575 56.122 16.1755 55.828 15.4195 55.828C14.6635 55.828 14.0755 56.122 13.6555 56.71C13.2475 57.298 13.0435 58.138 13.0435 59.23C13.0435 60.31 13.2475 61.138 13.6555 61.714C14.0755 62.29 14.6635 62.578 15.4195 62.578ZM26.1769 64.18C25.2529 64.18 24.4309 63.976 23.7109 63.568C22.9909 63.148 22.4329 62.566 22.0369 61.822C21.6409 61.078 21.4429 60.232 21.4429 59.284C21.4429 58.312 21.6469 57.448 22.0549 56.692C22.4629 55.924 23.0269 55.33 23.7469 54.91C24.4669 54.49 25.2829 54.28 26.1949 54.28C27.1189 54.28 27.9409 54.496 28.6609 54.928C29.3809 55.348 29.9389 55.936 30.3349 56.692C30.7309 57.448 30.9289 58.306 30.9289 59.266C30.9289 60.214 30.7249 61.06 30.3169 61.804C29.9209 62.548 29.3629 63.13 28.6429 63.55C27.9229 63.97 27.1009 64.18 26.1769 64.18ZM26.1949 62.578C26.9629 62.578 27.5449 62.29 27.9409 61.714C28.3489 61.138 28.5529 60.31 28.5529 59.23C28.5529 58.138 28.3489 57.298 27.9409 56.71C27.5329 56.122 26.9509 55.828 26.1949 55.828C25.4389 55.828 24.8509 56.122 24.4309 56.71C24.0229 57.298 23.8189 58.138 23.8189 59.23C23.8189 60.31 24.0229 61.138 24.4309 61.714C24.8509 62.29 25.4389 62.578 26.1949 62.578ZM35.0443 63.604C35.0443 63.76 35.0143 63.868 34.9543 63.928C34.8943 63.976 34.7863 64 34.6303 64H33.0463C32.9143 64 32.8183 63.976 32.7583 63.928C32.7103 63.88 32.6863 63.796 32.6863 63.676L32.7403 50.95C32.7403 50.746 32.8303 50.644 33.0103 50.644H34.7923C34.9603 50.644 35.0443 50.74 35.0443 50.932V63.604ZM43.1594 56.818C42.9194 56.494 42.6074 56.236 42.2234 56.044C41.8394 55.852 41.3954 55.756 40.8914 55.756C40.3634 55.756 39.9254 55.864 39.5774 56.08C39.2414 56.296 39.0734 56.578 39.0734 56.926C39.0734 57.13 39.1574 57.316 39.3254 57.484C39.4934 57.64 39.7994 57.778 40.2434 57.898L42.3854 58.474C43.2854 58.702 43.9454 59.05 44.3654 59.518C44.7854 59.986 44.9954 60.544 44.9954 61.192C44.9954 61.804 44.8154 62.338 44.4554 62.794C44.1074 63.238 43.6154 63.58 42.9794 63.82C42.3554 64.06 41.6414 64.18 40.8374 64.18C39.8414 64.18 38.9714 64 38.2274 63.64C37.4834 63.268 36.9554 62.788 36.6434 62.2C36.5954 62.104 36.5714 62.038 36.5714 62.002C36.5714 61.93 36.6074 61.87 36.6794 61.822L37.7414 61.282C37.8254 61.234 37.8974 61.21 37.9574 61.21C38.0054 61.21 38.0594 61.24 38.1194 61.3C38.4074 61.708 38.7554 62.032 39.1634 62.272C39.5834 62.512 40.1234 62.632 40.7834 62.632C41.3954 62.632 41.8934 62.53 42.2774 62.326C42.6734 62.11 42.8714 61.816 42.8714 61.444C42.8714 61.192 42.7634 60.982 42.5474 60.814C42.3434 60.634 41.9834 60.478 41.4674 60.346L39.6314 59.914C38.7194 59.698 38.0474 59.374 37.6154 58.942C37.1954 58.51 36.9854 57.958 36.9854 57.286C36.9854 56.698 37.1414 56.176 37.4534 55.72C37.7774 55.264 38.2334 54.91 38.8214 54.658C39.4214 54.406 40.1174 54.28 40.9094 54.28C41.7614 54.28 42.5174 54.442 43.1774 54.766C43.8374 55.078 44.3234 55.48 44.6354 55.972C44.6954 56.068 44.7254 56.146 44.7254 56.206C44.7254 56.266 44.6954 56.314 44.6354 56.35L43.5194 56.908C43.4474 56.932 43.4054 56.944 43.3934 56.944C43.2974 56.944 43.2194 56.902 43.1594 56.818Z" fill="#333333"/>
<path d="M189.99 64C189.918 64 189.864 63.976 189.828 63.928C189.792 63.868 189.792 63.79 189.828 63.694L194.49 50.896C194.526 50.8 194.568 50.734 194.616 50.698C194.664 50.662 194.742 50.644 194.85 50.644H196.254C196.482 50.644 196.62 50.734 196.668 50.914L201.276 63.694L201.294 63.784C201.294 63.928 201.228 64 201.096 64H199.818C199.674 64 199.578 63.94 199.53 63.82L198.288 60.328C198.264 60.28 198.24 60.244 198.216 60.22C198.192 60.196 198.144 60.184 198.072 60.184H192.834C192.726 60.184 192.654 60.232 192.618 60.328L191.34 63.838C191.304 63.946 191.214 64 191.07 64H189.99ZM197.604 58.816C197.736 58.816 197.784 58.738 197.748 58.582L195.588 52.66C195.552 52.552 195.51 52.498 195.462 52.498C195.414 52.498 195.372 52.552 195.336 52.66L193.14 58.618L193.104 58.726C193.104 58.786 193.152 58.816 193.248 58.816H197.604ZM210.25 64C210.082 64 209.998 63.916 209.998 63.748V62.974C209.998 62.866 209.968 62.812 209.908 62.812C209.872 62.812 209.824 62.842 209.764 62.902C209.404 63.262 209.008 63.568 208.576 63.82C208.156 64.06 207.61 64.18 206.938 64.18C206.17 64.18 205.486 64 204.886 63.64C204.286 63.28 203.812 62.74 203.464 62.02C203.116 61.288 202.942 60.406 202.942 59.374C202.942 58.366 203.122 57.478 203.482 56.71C203.842 55.942 204.34 55.348 204.976 54.928C205.612 54.496 206.338 54.28 207.154 54.28C207.694 54.28 208.162 54.364 208.558 54.532C208.954 54.7 209.326 54.934 209.674 55.234C209.77 55.306 209.836 55.342 209.872 55.342C209.932 55.342 209.962 55.264 209.962 55.108V50.878C209.962 50.722 210.028 50.644 210.16 50.644H211.258C211.39 50.644 211.456 50.722 211.456 50.878V63.712C211.456 63.82 211.438 63.898 211.402 63.946C211.366 63.982 211.288 64 211.168 64H210.25ZM209.944 56.566C209.56 56.182 209.17 55.894 208.774 55.702C208.39 55.498 207.97 55.396 207.514 55.396C206.602 55.396 205.87 55.738 205.318 56.422C204.766 57.106 204.49 58.072 204.49 59.32C204.49 60.58 204.76 61.522 205.3 62.146C205.852 62.77 206.554 63.082 207.406 63.082C207.874 63.082 208.3 62.974 208.684 62.758C209.08 62.53 209.386 62.248 209.602 61.912C209.83 61.576 209.944 61.24 209.944 60.904V56.566ZM218.236 64.18C217.336 64.18 216.538 63.976 215.842 63.568C215.158 63.148 214.624 62.566 214.24 61.822C213.868 61.078 213.682 60.232 213.682 59.284C213.682 58.312 213.874 57.448 214.258 56.692C214.654 55.936 215.194 55.348 215.878 54.928C216.574 54.496 217.366 54.28 218.254 54.28C219.142 54.28 219.928 54.496 220.612 54.928C221.308 55.348 221.842 55.936 222.214 56.692C222.598 57.448 222.79 58.306 222.79 59.266C222.79 60.214 222.598 61.06 222.214 61.804C221.83 62.548 221.29 63.13 220.594 63.55C219.91 63.97 219.124 64.18 218.236 64.18ZM218.272 63.046C219.208 63.046 219.934 62.71 220.45 62.038C220.978 61.354 221.242 60.418 221.242 59.23C221.242 58.054 220.972 57.124 220.432 56.44C219.904 55.744 219.178 55.396 218.254 55.396C217.318 55.396 216.58 55.744 216.04 56.44C215.5 57.124 215.23 58.054 215.23 59.23C215.23 60.406 215.5 61.336 216.04 62.02C216.58 62.704 217.324 63.046 218.272 63.046ZM225.303 64C225.195 64 225.117 63.982 225.069 63.946C225.033 63.898 225.015 63.82 225.015 63.712V50.896C225.015 50.728 225.087 50.644 225.231 50.644H226.347C226.467 50.644 226.527 50.728 226.527 50.896V55.306C226.527 55.438 226.557 55.504 226.617 55.504C226.653 55.504 226.713 55.474 226.797 55.414C227.601 54.658 228.561 54.28 229.677 54.28C230.937 54.28 231.891 54.736 232.539 55.648C233.199 56.548 233.529 57.724 233.529 59.176C233.529 60.724 233.163 61.948 232.431 62.848C231.711 63.736 230.709 64.18 229.425 64.18C228.693 64.18 228.087 64.036 227.607 63.748C227.127 63.448 226.755 63.118 226.491 62.758C226.455 62.71 226.419 62.686 226.383 62.686C226.335 62.686 226.305 62.728 226.293 62.812L226.203 63.712C226.179 63.82 226.143 63.898 226.095 63.946C226.059 63.982 225.987 64 225.879 64H225.303ZM226.527 60.778C226.527 61.198 226.647 61.588 226.887 61.948C227.139 62.296 227.463 62.578 227.859 62.794C228.255 62.998 228.669 63.1 229.101 63.1C229.965 63.1 230.655 62.776 231.171 62.128C231.699 61.48 231.963 60.508 231.963 59.212C231.963 57.988 231.729 57.046 231.261 56.386C230.793 55.714 230.115 55.378 229.227 55.378C228.687 55.378 228.183 55.498 227.715 55.738C227.259 55.978 226.863 56.302 226.527 56.71V60.778ZM236.798 59.824C236.798 60.4 236.936 60.934 237.212 61.426C237.5 61.918 237.884 62.308 238.364 62.596C238.844 62.884 239.372 63.028 239.948 63.028C241.148 63.028 242.084 62.53 242.756 61.534C242.804 61.486 242.846 61.462 242.882 61.462C242.918 61.45 242.96 61.456 243.008 61.48L243.764 61.858C243.86 61.918 243.872 62.002 243.8 62.11C243.332 62.83 242.774 63.358 242.126 63.694C241.478 64.018 240.704 64.18 239.804 64.18C238.928 64.18 238.142 63.976 237.446 63.568C236.75 63.16 236.204 62.59 235.808 61.858C235.424 61.114 235.232 60.268 235.232 59.32C235.232 58.3 235.43 57.412 235.826 56.656C236.222 55.888 236.762 55.3 237.446 54.892C238.142 54.484 238.922 54.28 239.786 54.28C240.65 54.28 241.406 54.472 242.054 54.856C242.714 55.24 243.224 55.804 243.584 56.548C243.944 57.28 244.124 58.15 244.124 59.158V59.23C244.124 59.338 244.106 59.422 244.07 59.482C244.034 59.53 243.962 59.554 243.854 59.554H236.96C236.852 59.554 236.798 59.644 236.798 59.824ZM242.306 58.564C242.438 58.564 242.522 58.552 242.558 58.528C242.594 58.492 242.612 58.42 242.612 58.312C242.612 57.784 242.498 57.298 242.27 56.854C242.054 56.398 241.73 56.038 241.298 55.774C240.878 55.498 240.386 55.36 239.822 55.36C239.21 55.36 238.676 55.516 238.22 55.828C237.764 56.128 237.416 56.524 237.176 57.016C236.936 57.496 236.822 58.012 236.834 58.564H242.306ZM260.178 54.532C260.178 55.816 259.746 56.788 258.882 57.448C258.03 58.096 256.878 58.42 255.426 58.42H252.366C252.258 58.42 252.204 58.474 252.204 58.582V63.73C252.204 63.91 252.114 64 251.934 64H250.71C250.554 64 250.476 63.922 250.476 63.766V50.896C250.476 50.8 250.488 50.734 250.512 50.698C250.548 50.662 250.608 50.644 250.692 50.644H255.228C256.728 50.644 257.928 50.968 258.828 51.616C259.728 52.252 260.178 53.224 260.178 54.532ZM258.414 54.478C258.414 53.59 258.132 52.948 257.568 52.552C257.004 52.156 256.194 51.958 255.138 51.958H252.438C252.282 51.958 252.204 52.03 252.204 52.174V56.854C252.204 56.95 252.216 57.016 252.24 57.052C252.264 57.088 252.306 57.106 252.366 57.106H255.264C256.248 57.106 257.016 56.89 257.568 56.458C258.132 56.014 258.414 55.354 258.414 54.478ZM270.122 53.128C269.354 52.228 268.334 51.778 267.062 51.778C266.162 51.778 265.454 51.976 264.938 52.372C264.422 52.768 264.164 53.32 264.164 54.028C264.164 54.964 264.806 55.648 266.09 56.08L268.7 56.944C269.756 57.292 270.518 57.76 270.986 58.348C271.466 58.924 271.706 59.632 271.706 60.472C271.706 61.624 271.28 62.53 270.428 63.19C269.576 63.85 268.412 64.18 266.936 64.18C265.856 64.18 264.902 63.988 264.074 63.604C263.258 63.22 262.598 62.662 262.094 61.93C262.046 61.834 262.022 61.774 262.022 61.75C262.022 61.666 262.082 61.582 262.202 61.498L262.85 61.048C262.958 60.976 263.042 60.94 263.102 60.94C263.174 60.94 263.24 60.976 263.3 61.048C263.816 61.708 264.326 62.176 264.83 62.452C265.334 62.728 266.012 62.866 266.864 62.866C267.872 62.866 268.652 62.686 269.204 62.326C269.768 61.966 270.05 61.408 270.05 60.652C270.05 60.184 269.9 59.788 269.6 59.464C269.312 59.128 268.784 58.816 268.016 58.528L265.28 57.592C264.332 57.268 263.63 56.806 263.174 56.206C262.73 55.594 262.508 54.922 262.508 54.19C262.508 53.446 262.694 52.792 263.066 52.228C263.45 51.664 263.984 51.232 264.668 50.932C265.364 50.62 266.162 50.464 267.062 50.464C267.938 50.464 268.73 50.62 269.438 50.932C270.158 51.244 270.77 51.682 271.274 52.246C271.334 52.306 271.364 52.366 271.364 52.426C271.364 52.486 271.334 52.54 271.274 52.588L270.446 53.236C270.41 53.272 270.374 53.29 270.338 53.29C270.302 53.29 270.23 53.236 270.122 53.128ZM273.625 66.574C273.565 66.574 273.523 66.55 273.499 66.502C273.475 66.454 273.475 66.388 273.499 66.304L274.309 64.288C274.345 64.216 274.363 64.162 274.363 64.126C274.363 64.042 274.297 64 274.165 64H273.931C273.775 64 273.697 63.928 273.697 63.784V62.182C273.697 62.05 273.757 61.984 273.877 61.984H275.371C275.491 61.984 275.551 62.044 275.551 62.164V63.64C275.551 63.724 275.533 63.796 275.497 63.856L274.183 66.376C274.111 66.508 273.991 66.574 273.823 66.574H273.625ZM281.361 64C281.289 64 281.235 63.976 281.199 63.928C281.163 63.868 281.163 63.79 281.199 63.694L285.861 50.896C285.897 50.8 285.939 50.734 285.987 50.698C286.035 50.662 286.113 50.644 286.221 50.644H287.625C287.853 50.644 287.991 50.734 288.039 50.914L292.647 63.694L292.665 63.784C292.665 63.928 292.599 64 292.467 64H291.189C291.045 64 290.949 63.94 290.901 63.82L289.659 60.328C289.635 60.28 289.611 60.244 289.587 60.22C289.563 60.196 289.515 60.184 289.443 60.184H284.205C284.097 60.184 284.025 60.232 283.989 60.328L282.711 63.838C282.675 63.946 282.585 64 282.441 64H281.361ZM288.975 58.816C289.107 58.816 289.155 58.738 289.119 58.582L286.959 52.66C286.923 52.552 286.881 52.498 286.833 52.498C286.785 52.498 286.743 52.552 286.707 52.66L284.511 58.618L284.475 58.726C284.475 58.786 284.523 58.816 284.619 58.816H288.975ZM296.707 50.644C296.851 50.644 296.923 50.722 296.923 50.878V63.694C296.923 63.814 296.899 63.898 296.851 63.946C296.803 63.982 296.719 64 296.599 64H295.465C295.357 64 295.285 63.982 295.249 63.946C295.213 63.91 295.195 63.844 295.195 63.748V50.896C295.195 50.728 295.267 50.644 295.411 50.644H296.707ZM299.606 66.574C299.546 66.574 299.504 66.55 299.48 66.502C299.456 66.454 299.456 66.388 299.48 66.304L300.29 64.288C300.326 64.216 300.344 64.162 300.344 64.126C300.344 64.042 300.278 64 300.146 64H299.912C299.756 64 299.678 63.928 299.678 63.784V62.182C299.678 62.05 299.738 61.984 299.858 61.984H301.352C301.472 61.984 301.532 62.044 301.532 62.164V63.64C301.532 63.724 301.514 63.796 301.478 63.856L300.164 66.376C300.092 66.508 299.972 66.574 299.804 66.574H299.606ZM317.836 63.622C317.908 63.73 317.944 63.808 317.944 63.856C317.944 63.952 317.866 64 317.71 64H316.342C316.198 64 316.102 63.952 316.054 63.856L312.634 58.708C312.55 58.588 312.484 58.528 312.436 58.528C312.388 58.528 312.316 58.6 312.22 58.744L308.854 63.856C308.794 63.952 308.692 64 308.548 64H307.36C307.228 64 307.162 63.964 307.162 63.892C307.162 63.832 307.198 63.742 307.27 63.622L311.392 57.412C311.452 57.328 311.482 57.256 311.482 57.196C311.482 57.136 311.452 57.058 311.392 56.962L307.36 50.914C307.336 50.866 307.324 50.824 307.324 50.788C307.324 50.692 307.372 50.644 307.468 50.644H308.926C309.01 50.644 309.07 50.656 309.106 50.68C309.154 50.704 309.196 50.746 309.232 50.806L312.382 55.612C312.43 55.696 312.484 55.738 312.544 55.738C312.616 55.738 312.676 55.696 312.724 55.612L315.874 50.806C315.934 50.698 316.03 50.644 316.162 50.644H317.476C317.548 50.644 317.59 50.668 317.602 50.716C317.614 50.764 317.602 50.818 317.566 50.878L313.57 56.836C313.522 56.896 313.498 56.962 313.498 57.034C313.498 57.106 313.522 57.172 313.57 57.232L317.836 63.622ZM320.742 50.644C321.93 50.644 322.872 50.65 323.568 50.662C325.992 50.698 327.762 51.262 328.878 52.354C330.006 53.446 330.57 55.078 330.57 57.25C330.57 61.75 328.176 64 323.388 64H320.742C320.574 64 320.49 63.904 320.49 63.712V50.878C320.49 50.794 320.508 50.734 320.544 50.698C320.58 50.662 320.646 50.644 320.742 50.644ZM322.362 51.958C322.266 51.958 322.218 52.042 322.218 52.21V62.506C322.218 62.578 322.23 62.632 322.254 62.668C322.29 62.692 322.35 62.704 322.434 62.704H323.118C324.462 62.704 325.542 62.53 326.358 62.182C327.186 61.822 327.792 61.246 328.176 60.454C328.572 59.662 328.77 58.606 328.77 57.286C328.77 55.966 328.584 54.928 328.212 54.172C327.84 53.404 327.27 52.858 326.502 52.534C325.746 52.198 324.738 52.012 323.478 51.976C323.238 51.964 322.866 51.958 322.362 51.958ZM331.563 66.574C331.503 66.574 331.461 66.55 331.437 66.502C331.413 66.454 331.413 66.388 331.437 66.304L332.247 64.288C332.283 64.216 332.301 64.162 332.301 64.126C332.301 64.042 332.235 64 332.103 64H331.869C331.713 64 331.635 63.928 331.635 63.784V62.182C331.635 62.05 331.695 61.984 331.815 61.984H333.309C333.429 61.984 333.489 62.044 333.489 62.164V63.64C333.489 63.724 333.471 63.796 333.435 63.856L332.121 66.376C332.049 66.508 331.929 66.574 331.761 66.574H331.563ZM340.055 50.896C340.055 50.728 340.127 50.644 340.271 50.644H348.191C348.311 50.644 348.371 50.71 348.371 50.842V51.76C348.371 51.904 348.293 51.976 348.137 51.976H342.017C341.921 51.976 341.855 51.994 341.819 52.03C341.795 52.054 341.783 52.108 341.783 52.192V56.62C341.783 56.752 341.849 56.818 341.981 56.818H346.787C346.919 56.818 346.985 56.878 346.985 56.998V57.952C346.985 58.012 346.967 58.054 346.931 58.078C346.907 58.102 346.859 58.114 346.787 58.114H341.981C341.849 58.114 341.783 58.18 341.783 58.312V63.766C341.783 63.922 341.699 64 341.531 64H340.307C340.211 64 340.145 63.982 340.109 63.946C340.073 63.91 340.055 63.844 340.055 63.748V50.896ZM352.089 52.408C352.089 52.528 352.065 52.618 352.017 52.678C351.969 52.726 351.885 52.75 351.765 52.75H350.721C350.541 52.75 350.451 52.648 350.451 52.444V50.932C350.451 50.74 350.535 50.644 350.703 50.644H351.837C351.909 50.644 351.969 50.668 352.017 50.716C352.065 50.764 352.089 50.83 352.089 50.914V52.408ZM352.017 63.694C352.017 63.814 351.993 63.898 351.945 63.946C351.897 63.982 351.813 64 351.693 64H350.775C350.667 64 350.595 63.982 350.559 63.946C350.523 63.91 350.505 63.844 350.505 63.748V54.712C350.505 54.544 350.577 54.46 350.721 54.46H351.819C351.951 54.46 352.017 54.538 352.017 54.694V63.694ZM363.434 54.298C363.662 54.298 363.776 54.394 363.776 54.586V55.216C363.776 55.336 363.746 55.426 363.686 55.486C363.638 55.534 363.548 55.552 363.416 55.54C363.02 55.54 362.708 55.594 362.48 55.702C362.192 55.822 362.072 55.96 362.12 56.116C362.132 56.164 362.168 56.254 362.228 56.386C362.288 56.518 362.336 56.668 362.372 56.836C362.408 56.992 362.426 57.16 362.426 57.34C362.426 58.192 362.09 58.888 361.418 59.428C360.758 59.968 359.792 60.238 358.52 60.238C357.668 60.238 357.056 60.31 356.684 60.454C356.312 60.598 356.126 60.784 356.126 61.012C356.126 61.192 356.252 61.33 356.504 61.426C356.756 61.51 357.176 61.57 357.764 61.606L360.086 61.732C361.118 61.792 361.886 62.038 362.39 62.47C362.894 62.902 363.146 63.49 363.146 64.234C363.146 65.146 362.744 65.86 361.94 66.376C361.148 66.892 360.014 67.15 358.538 67.15C357.014 67.15 355.85 66.928 355.046 66.484C354.254 66.052 353.858 65.428 353.858 64.612C353.858 63.808 354.422 63.13 355.55 62.578C355.682 62.518 355.682 62.452 355.55 62.38C354.998 62.14 354.722 61.786 354.722 61.318C354.722 61.054 354.842 60.802 355.082 60.562C355.334 60.322 355.688 60.124 356.144 59.968C356.204 59.956 356.234 59.926 356.234 59.878C356.234 59.818 356.204 59.776 356.144 59.752C355.616 59.476 355.226 59.146 354.974 58.762C354.722 58.366 354.596 57.892 354.596 57.34C354.596 56.404 354.95 55.666 355.658 55.126C356.366 54.586 357.368 54.316 358.664 54.316C359.804 54.316 360.704 54.586 361.364 55.126C361.448 55.186 361.508 55.216 361.544 55.216C361.592 55.216 361.658 55.186 361.742 55.126C361.97 54.898 362.234 54.706 362.534 54.55C362.846 54.382 363.146 54.298 363.434 54.298ZM358.52 59.284C359.348 59.284 359.966 59.116 360.374 58.78C360.794 58.444 361.004 57.958 361.004 57.322C361.004 56.674 360.794 56.17 360.374 55.81C359.954 55.45 359.336 55.27 358.52 55.27C357.728 55.27 357.11 55.456 356.666 55.828C356.222 56.188 356 56.686 356 57.322C356 57.946 356.216 58.432 356.648 58.78C357.092 59.116 357.716 59.284 358.52 59.284ZM356.936 62.83C356.72 62.818 356.474 62.884 356.198 63.028C355.922 63.16 355.688 63.352 355.496 63.604C355.304 63.856 355.208 64.132 355.208 64.432C355.208 65.008 355.502 65.446 356.09 65.746C356.678 66.058 357.548 66.214 358.7 66.214C360.728 66.214 361.742 65.614 361.742 64.414C361.742 63.994 361.598 63.664 361.31 63.424C361.034 63.184 360.578 63.046 359.942 63.01L356.936 62.83ZM365.892 64C365.724 64 365.64 63.922 365.64 63.766V54.694C365.64 54.538 365.706 54.46 365.838 54.46H366.918C367.038 54.46 367.098 54.526 367.098 54.658V55.702C367.098 55.846 367.158 55.864 367.278 55.756C367.926 55.228 368.478 54.85 368.934 54.622C369.39 54.394 369.9 54.28 370.464 54.28C371.136 54.28 371.688 54.43 372.12 54.73C372.564 55.03 372.864 55.408 373.02 55.864C373.044 55.9 373.068 55.918 373.092 55.918C373.128 55.918 373.188 55.888 373.272 55.828C373.896 55.3 374.454 54.91 374.946 54.658C375.45 54.406 375.978 54.28 376.53 54.28C377.394 54.28 378.066 54.526 378.546 55.018C379.038 55.51 379.284 56.176 379.284 57.016V63.712C379.284 63.904 379.194 64 379.014 64H378.006C377.85 64 377.772 63.922 377.772 63.766V57.34C377.772 56.74 377.628 56.278 377.34 55.954C377.052 55.63 376.62 55.468 376.044 55.468C375.564 55.468 375.114 55.588 374.694 55.828C374.274 56.056 373.866 56.344 373.47 56.692C373.374 56.788 373.308 56.872 373.272 56.944C373.236 57.016 373.218 57.106 373.218 57.214V63.712C373.218 63.904 373.128 64 372.948 64H371.94C371.784 64 371.706 63.922 371.706 63.766V57.34C371.706 56.092 371.13 55.468 369.978 55.468C369.498 55.468 369.054 55.582 368.646 55.81C368.25 56.026 367.752 56.398 367.152 56.926V63.73C367.152 63.826 367.128 63.898 367.08 63.946C367.044 63.982 366.978 64 366.882 64H365.892ZM387.496 62.848C386.572 63.736 385.504 64.18 384.292 64.18C383.356 64.18 382.618 63.946 382.078 63.478C381.55 62.998 381.286 62.362 381.286 61.57C381.286 60.61 381.688 59.854 382.492 59.302C383.308 58.75 384.484 58.426 386.02 58.33L387.424 58.222C387.628 58.198 387.73 58.108 387.73 57.952V57.466C387.73 56.818 387.526 56.308 387.118 55.936C386.722 55.552 386.182 55.36 385.498 55.36C384.442 55.36 383.578 55.84 382.906 56.8C382.87 56.86 382.834 56.902 382.798 56.926C382.762 56.938 382.714 56.932 382.654 56.908L381.682 56.584C381.622 56.56 381.592 56.518 381.592 56.458C381.592 56.422 381.61 56.368 381.646 56.296C382.006 55.66 382.516 55.168 383.176 54.82C383.848 54.46 384.64 54.28 385.552 54.28C386.728 54.28 387.628 54.556 388.252 55.108C388.876 55.648 389.188 56.398 389.188 57.358V63.73C389.188 63.838 389.17 63.91 389.134 63.946C389.098 63.982 389.032 64 388.936 64H388.036C387.892 64 387.808 63.904 387.784 63.712L387.748 62.884C387.736 62.8 387.706 62.758 387.658 62.758C387.61 62.758 387.556 62.788 387.496 62.848ZM387.73 59.428C387.73 59.236 387.64 59.14 387.46 59.14L386.29 59.248C385.174 59.32 384.31 59.536 383.698 59.896C383.098 60.256 382.798 60.754 382.798 61.39C382.798 61.906 382.978 62.314 383.338 62.614C383.71 62.914 384.202 63.064 384.814 63.064C385.186 63.064 385.552 62.998 385.912 62.866C386.272 62.734 386.59 62.554 386.866 62.326C387.142 62.11 387.352 61.882 387.496 61.642C387.652 61.39 387.73 61.15 387.73 60.922V59.428ZM391.364 66.574C391.304 66.574 391.262 66.55 391.238 66.502C391.214 66.454 391.214 66.388 391.238 66.304L392.048 64.288C392.084 64.216 392.102 64.162 392.102 64.126C392.102 64.042 392.036 64 391.904 64H391.67C391.514 64 391.436 63.928 391.436 63.784V62.182C391.436 62.05 391.496 61.984 391.616 61.984H393.11C393.23 61.984 393.29 62.044 393.29 62.164V63.64C393.29 63.724 393.272 63.796 393.236 63.856L391.922 66.376C391.85 66.508 391.73 66.574 391.562 66.574H391.364ZM401.367 50.644C401.511 50.644 401.583 50.722 401.583 50.878V63.694C401.583 63.814 401.559 63.898 401.511 63.946C401.463 63.982 401.379 64 401.259 64H400.125C400.017 64 399.945 63.982 399.909 63.946C399.873 63.91 399.855 63.844 399.855 63.748V50.896C399.855 50.728 399.927 50.644 400.071 50.644H401.367ZM404.968 64C404.8 64 404.716 63.922 404.716 63.766V54.694C404.716 54.538 404.782 54.46 404.914 54.46H405.994C406.126 54.46 406.192 54.526 406.192 54.658V55.702C406.192 55.834 406.246 55.852 406.354 55.756C407.026 55.228 407.596 54.85 408.064 54.622C408.544 54.394 409.078 54.28 409.666 54.28C410.578 54.28 411.286 54.526 411.79 55.018C412.306 55.51 412.564 56.17 412.564 56.998V63.712C412.564 63.904 412.474 64 412.294 64H411.286C411.13 64 411.052 63.922 411.052 63.766V57.34C411.052 56.74 410.896 56.278 410.584 55.954C410.284 55.63 409.816 55.468 409.18 55.468C408.676 55.468 408.208 55.582 407.776 55.81C407.356 56.026 406.84 56.398 406.228 56.926V63.73C406.228 63.826 406.204 63.898 406.156 63.946C406.12 63.982 406.054 64 405.958 64H404.968ZM425.56 50.644C425.644 50.644 425.698 50.674 425.722 50.734C425.758 50.782 425.764 50.836 425.74 50.896L421.186 63.73C421.15 63.826 421.102 63.898 421.042 63.946C420.982 63.982 420.898 64 420.79 64H419.566C419.326 64 419.182 63.916 419.134 63.748L414.67 50.914C414.658 50.89 414.652 50.86 414.652 50.824C414.652 50.704 414.724 50.644 414.868 50.644H416.11C416.254 50.644 416.356 50.716 416.416 50.86L420.16 61.768C420.196 61.876 420.238 61.93 420.286 61.93C420.334 61.93 420.382 61.87 420.43 61.75L424.228 50.842C424.264 50.71 424.354 50.644 424.498 50.644H425.56ZM429.538 52.408C429.538 52.528 429.514 52.618 429.466 52.678C429.418 52.726 429.334 52.75 429.214 52.75H428.17C427.99 52.75 427.9 52.648 427.9 52.444V50.932C427.9 50.74 427.984 50.644 428.152 50.644H429.286C429.358 50.644 429.418 50.668 429.466 50.716C429.514 50.764 429.538 50.83 429.538 50.914V52.408ZM429.466 63.694C429.466 63.814 429.442 63.898 429.394 63.946C429.346 63.982 429.262 64 429.142 64H428.224C428.116 64 428.044 63.982 428.008 63.946C427.972 63.91 427.954 63.844 427.954 63.748V54.712C427.954 54.544 428.026 54.46 428.17 54.46H429.268C429.4 54.46 429.466 54.538 429.466 54.694V63.694ZM437.985 56.566C437.733 56.194 437.385 55.9 436.941 55.684C436.509 55.456 436.005 55.342 435.429 55.342C434.769 55.342 434.229 55.486 433.809 55.774C433.389 56.05 433.179 56.416 433.179 56.872C433.179 57.148 433.281 57.4 433.485 57.628C433.701 57.844 434.085 58.036 434.637 58.204L436.923 58.888C437.715 59.104 438.303 59.428 438.687 59.86C439.071 60.28 439.263 60.784 439.263 61.372C439.263 61.924 439.095 62.416 438.759 62.848C438.423 63.268 437.961 63.598 437.373 63.838C436.785 64.066 436.119 64.18 435.375 64.18C434.451 64.18 433.629 64 432.909 63.64C432.189 63.268 431.679 62.788 431.379 62.2C431.343 62.14 431.325 62.092 431.325 62.056C431.325 61.996 431.355 61.948 431.415 61.912L432.117 61.516C432.237 61.444 432.327 61.45 432.387 61.534C433.035 62.566 434.037 63.082 435.393 63.082C436.101 63.07 436.683 62.926 437.139 62.65C437.607 62.362 437.841 61.99 437.841 61.534C437.841 61.198 437.703 60.916 437.427 60.688C437.151 60.46 436.701 60.256 436.077 60.076L434.223 59.554C433.347 59.326 432.717 59.008 432.333 58.6C431.961 58.192 431.775 57.694 431.775 57.106C431.775 56.554 431.925 56.062 432.225 55.63C432.537 55.198 432.969 54.868 433.521 54.64C434.085 54.4 434.727 54.28 435.447 54.28C436.239 54.28 436.947 54.43 437.571 54.73C438.207 55.03 438.693 55.438 439.029 55.954C439.113 56.074 439.107 56.158 439.011 56.206L438.255 56.62C438.207 56.644 438.171 56.656 438.147 56.656C438.099 56.656 438.045 56.626 437.985 56.566ZM443.056 52.408C443.056 52.528 443.032 52.618 442.984 52.678C442.936 52.726 442.852 52.75 442.732 52.75H441.688C441.508 52.75 441.418 52.648 441.418 52.444V50.932C441.418 50.74 441.502 50.644 441.67 50.644H442.804C442.876 50.644 442.936 50.668 442.984 50.716C443.032 50.764 443.056 50.83 443.056 50.914V52.408ZM442.984 63.694C442.984 63.814 442.96 63.898 442.912 63.946C442.864 63.982 442.78 64 442.66 64H441.742C441.634 64 441.562 63.982 441.526 63.946C441.49 63.91 441.472 63.844 441.472 63.748V54.712C441.472 54.544 441.544 54.46 441.688 54.46H442.786C442.918 54.46 442.984 54.538 442.984 54.694V63.694ZM449.775 64.18C448.875 64.18 448.077 63.976 447.381 63.568C446.697 63.148 446.163 62.566 445.779 61.822C445.407 61.078 445.221 60.232 445.221 59.284C445.221 58.312 445.413 57.448 445.797 56.692C446.193 55.936 446.733 55.348 447.417 54.928C448.113 54.496 448.905 54.28 449.793 54.28C450.681 54.28 451.467 54.496 452.151 54.928C452.847 55.348 453.381 55.936 453.753 56.692C454.137 57.448 454.329 58.306 454.329 59.266C454.329 60.214 454.137 61.06 453.753 61.804C453.369 62.548 452.829 63.13 452.133 63.55C451.449 63.97 450.663 64.18 449.775 64.18ZM449.811 63.046C450.747 63.046 451.473 62.71 451.989 62.038C452.517 61.354 452.781 60.418 452.781 59.23C452.781 58.054 452.511 57.124 451.971 56.44C451.443 55.744 450.717 55.396 449.793 55.396C448.857 55.396 448.119 55.744 447.579 56.44C447.039 57.124 446.769 58.054 446.769 59.23C446.769 60.406 447.039 61.336 447.579 62.02C448.119 62.704 448.863 63.046 449.811 63.046ZM456.806 64C456.638 64 456.554 63.922 456.554 63.766V54.694C456.554 54.538 456.62 54.46 456.752 54.46H457.832C457.964 54.46 458.03 54.526 458.03 54.658V55.702C458.03 55.834 458.084 55.852 458.192 55.756C458.864 55.228 459.434 54.85 459.902 54.622C460.382 54.394 460.916 54.28 461.504 54.28C462.416 54.28 463.124 54.526 463.628 55.018C464.144 55.51 464.402 56.17 464.402 56.998V63.712C464.402 63.904 464.312 64 464.132 64H463.124C462.968 64 462.89 63.922 462.89 63.766V57.34C462.89 56.74 462.734 56.278 462.422 55.954C462.122 55.63 461.654 55.468 461.018 55.468C460.514 55.468 460.046 55.582 459.614 55.81C459.194 56.026 458.678 56.398 458.066 56.926V63.73C458.066 63.826 458.042 63.898 457.994 63.946C457.958 63.982 457.892 64 457.796 64H456.806Z" fill="#333333"/>
<path d="M11.628 14.23C11.628 15.97 11.184 17.23 10.296 18.01C9.42 18.79 8.136 19.18 6.444 19.18C4.608 19.18 3.282 18.748 2.466 17.884C1.662 17.008 1.26 15.682 1.26 13.906V5.968C1.26 5.86 1.284 5.782 1.332 5.734C1.38 5.674 1.44 5.644 1.512 5.644H3.672C3.84 5.644 3.924 5.74 3.924 5.932V14.302C3.924 15.31 4.152 16.054 4.608 16.534C5.064 17.002 5.742 17.236 6.642 17.236C8.502 17.236 9.432 16.24 9.432 14.248V5.95C9.432 5.746 9.516 5.644 9.684 5.644H11.394C11.55 5.644 11.628 5.74 11.628 5.932V14.23ZM16.7363 5.644C16.9043 5.644 16.9883 5.74 16.9883 5.932V18.604C16.9883 18.748 16.9523 18.85 16.8803 18.91C16.8203 18.97 16.7123 19 16.5563 19H14.6843C14.5403 19 14.4443 18.976 14.3963 18.928C14.3483 18.88 14.3243 18.796 14.3243 18.676V5.95C14.3243 5.746 14.4143 5.644 14.5943 5.644H16.7363ZM23.93 5.644C25.646 5.644 26.852 5.65 27.548 5.662C32.24 5.77 34.586 7.972 34.586 12.268C34.586 14.416 33.98 16.078 32.768 17.254C31.568 18.418 29.786 19 27.422 19H23.948C23.708 19 23.588 18.874 23.588 18.622V5.968C23.588 5.848 23.612 5.764 23.66 5.716C23.708 5.668 23.798 5.644 23.93 5.644ZM26.414 7.552C26.306 7.552 26.252 7.636 26.252 7.804V16.876C26.252 16.96 26.27 17.02 26.306 17.056C26.342 17.08 26.402 17.092 26.486 17.092H26.936C28.628 17.092 29.858 16.72 30.626 15.976C31.406 15.232 31.796 13.996 31.796 12.268C31.796 11.152 31.64 10.264 31.328 9.604C31.016 8.932 30.548 8.44 29.924 8.128C29.312 7.816 28.508 7.636 27.512 7.588L26.414 7.552ZM38.5858 14.968C38.5858 15.46 38.6998 15.904 38.9278 16.3C39.1558 16.684 39.4678 16.99 39.8638 17.218C40.2718 17.434 40.7158 17.542 41.1958 17.542C41.6878 17.542 42.1318 17.44 42.5278 17.236C42.9358 17.02 43.3198 16.69 43.6798 16.246C43.7398 16.186 43.7878 16.156 43.8238 16.156C43.8598 16.156 43.9138 16.174 43.9858 16.21L45.0838 16.696C45.1678 16.732 45.2098 16.786 45.2098 16.858C45.2098 16.894 45.1858 16.948 45.1378 17.02C44.5978 17.8 43.9978 18.358 43.3378 18.694C42.6898 19.018 41.8858 19.18 40.9258 19.18C40.0138 19.18 39.1918 18.976 38.4598 18.568C37.7398 18.16 37.1758 17.59 36.7678 16.858C36.3598 16.126 36.1558 15.292 36.1558 14.356C36.1558 13.348 36.3658 12.46 36.7858 11.692C37.2058 10.924 37.7758 10.33 38.4958 9.91C39.2158 9.49 40.0138 9.28 40.8898 9.28C41.7898 9.28 42.5818 9.478 43.2658 9.874C43.9618 10.27 44.4958 10.846 44.8678 11.602C45.2518 12.346 45.4438 13.234 45.4438 14.266V14.338C45.4438 14.458 45.4258 14.542 45.3898 14.59C45.3538 14.638 45.2758 14.668 45.1558 14.68H38.7838C38.6518 14.68 38.5858 14.776 38.5858 14.968ZM42.8518 13.348C42.9718 13.348 43.0498 13.336 43.0858 13.312C43.1338 13.276 43.1578 13.204 43.1578 13.096C43.1578 12.712 43.0738 12.34 42.9058 11.98C42.7378 11.62 42.4858 11.326 42.1498 11.098C41.8258 10.87 41.4358 10.756 40.9798 10.756C40.2718 10.756 39.6958 11.008 39.2518 11.512C38.8198 12.004 38.6098 12.616 38.6218 13.348H42.8518ZM52.9855 11.818C52.7455 11.494 52.4335 11.236 52.0495 11.044C51.6655 10.852 51.2215 10.756 50.7175 10.756C50.1895 10.756 49.7515 10.864 49.4035 11.08C49.0675 11.296 48.8995 11.578 48.8995 11.926C48.8995 12.13 48.9835 12.316 49.1515 12.484C49.3195 12.64 49.6255 12.778 50.0695 12.898L52.2115 13.474C53.1115 13.702 53.7715 14.05 54.1915 14.518C54.6115 14.986 54.8215 15.544 54.8215 16.192C54.8215 16.804 54.6415 17.338 54.2815 17.794C53.9335 18.238 53.4415 18.58 52.8055 18.82C52.1815 19.06 51.4675 19.18 50.6635 19.18C49.6675 19.18 48.7975 19 48.0535 18.64C47.3095 18.268 46.7815 17.788 46.4695 17.2C46.4215 17.104 46.3975 17.038 46.3975 17.002C46.3975 16.93 46.4335 16.87 46.5055 16.822L47.5675 16.282C47.6515 16.234 47.7235 16.21 47.7835 16.21C47.8315 16.21 47.8855 16.24 47.9455 16.3C48.2335 16.708 48.5815 17.032 48.9895 17.272C49.4095 17.512 49.9495 17.632 50.6095 17.632C51.2215 17.632 51.7195 17.53 52.1035 17.326C52.4995 17.11 52.6975 16.816 52.6975 16.444C52.6975 16.192 52.5895 15.982 52.3735 15.814C52.1695 15.634 51.8095 15.478 51.2935 15.346L49.4575 14.914C48.5455 14.698 47.8735 14.374 47.4415 13.942C47.0215 13.51 46.8115 12.958 46.8115 12.286C46.8115 11.698 46.9675 11.176 47.2795 10.72C47.6035 10.264 48.0595 9.91 48.6475 9.658C49.2475 9.406 49.9435 9.28 50.7355 9.28C51.5875 9.28 52.3435 9.442 53.0035 9.766C53.6635 10.078 54.1495 10.48 54.4615 10.972C54.5215 11.068 54.5515 11.146 54.5515 11.206C54.5515 11.266 54.5215 11.314 54.4615 11.35L53.3455 11.908C53.2735 11.932 53.2315 11.944 53.2195 11.944C53.1235 11.944 53.0455 11.902 52.9855 11.818ZM58.969 7.696C58.969 7.84 58.933 7.948 58.861 8.02C58.801 8.08 58.693 8.11 58.537 8.11H56.899C56.767 8.11 56.677 8.08 56.629 8.02C56.581 7.96 56.557 7.87 56.557 7.75V5.986C56.557 5.758 56.653 5.644 56.845 5.644H58.699C58.783 5.644 58.849 5.674 58.897 5.734C58.945 5.782 58.969 5.854 58.969 5.95V7.696ZM58.933 18.604C58.933 18.748 58.897 18.85 58.825 18.91C58.765 18.97 58.657 19 58.501 19H56.935C56.803 19 56.713 18.976 56.665 18.928C56.617 18.88 56.593 18.796 56.593 18.676V9.766C56.593 9.562 56.683 9.46 56.863 9.46H58.681C58.849 9.46 58.933 9.556 58.933 9.748V18.604ZM70.4865 9.136C70.7265 9.136 70.8465 9.256 70.8465 9.496V10.504C70.8465 10.804 70.7145 10.936 70.4505 10.9C70.3545 10.888 70.2225 10.882 70.0545 10.882C69.8745 10.882 69.7125 10.9 69.5685 10.936C69.2565 11.008 69.1365 11.146 69.2085 11.35C69.2805 11.542 69.3345 11.704 69.3705 11.836C69.4065 11.956 69.4245 12.112 69.4245 12.304C69.4245 12.856 69.2625 13.354 68.9385 13.798C68.6265 14.242 68.1525 14.596 67.5165 14.86C66.8925 15.112 66.1305 15.238 65.2305 15.238C64.4865 15.238 63.9465 15.298 63.6105 15.418C63.2865 15.538 63.1245 15.7 63.1245 15.904C63.1245 16.072 63.2205 16.192 63.4125 16.264C63.6165 16.336 63.9525 16.384 64.4205 16.408L66.9045 16.552C68.0445 16.612 68.8905 16.87 69.4425 17.326C70.0065 17.77 70.2885 18.37 70.2885 19.126C70.2885 20.05 69.8565 20.782 68.9925 21.322C68.1405 21.874 66.9225 22.15 65.3385 22.15C63.6705 22.15 62.4105 21.946 61.5585 21.538C60.7185 21.142 60.2985 20.548 60.2985 19.756C60.2985 19.36 60.4425 19.018 60.7305 18.73C61.0305 18.43 61.4565 18.166 62.0085 17.938C62.0805 17.914 62.1165 17.884 62.1165 17.848C62.1165 17.812 62.0805 17.776 62.0085 17.74C61.3605 17.452 61.0365 17.044 61.0365 16.516C61.0365 16.204 61.1865 15.916 61.4865 15.652C61.7865 15.388 62.1825 15.16 62.6745 14.968C62.7585 14.92 62.8005 14.884 62.8005 14.86C62.8005 14.824 62.7645 14.788 62.6925 14.752C61.5765 14.224 61.0185 13.414 61.0185 12.322C61.0185 11.398 61.3965 10.666 62.1525 10.126C62.9205 9.586 64.0065 9.316 65.4105 9.316C66.6225 9.316 67.5585 9.586 68.2185 10.126C68.3025 10.186 68.3805 10.216 68.4525 10.216C68.5365 10.216 68.6145 10.18 68.6865 10.108C68.9025 9.844 69.1845 9.616 69.5325 9.424C69.8925 9.232 70.2105 9.136 70.4865 9.136ZM65.2125 14.014C65.8965 14.014 66.4125 13.864 66.7605 13.564C67.1085 13.264 67.2825 12.856 67.2825 12.34C67.2825 11.788 67.1085 11.356 66.7605 11.044C66.4125 10.72 65.8965 10.558 65.2125 10.558C64.5645 10.558 64.0545 10.72 63.6825 11.044C63.3225 11.368 63.1425 11.8 63.1425 12.34C63.1425 12.844 63.3225 13.252 63.6825 13.564C64.0545 13.864 64.5645 14.014 65.2125 14.014ZM63.7905 18.244C63.4305 18.22 63.0825 18.328 62.7465 18.568C62.4225 18.808 62.2605 19.102 62.2605 19.45C62.2605 19.942 62.5185 20.314 63.0345 20.566C63.5625 20.818 64.3905 20.944 65.5185 20.944C66.3945 20.944 67.0605 20.818 67.5165 20.566C67.9725 20.326 68.2005 19.972 68.2005 19.504C68.2005 18.808 67.6845 18.436 66.6525 18.388L63.7905 18.244ZM72.7197 19C72.5997 19 72.5157 18.976 72.4677 18.928C72.4197 18.88 72.3957 18.796 72.3957 18.676V9.766C72.3957 9.562 72.4797 9.46 72.6477 9.46H74.4477C74.6037 9.46 74.6817 9.55 74.6817 9.73V10.666C74.6817 10.738 74.6997 10.78 74.7357 10.792C74.7717 10.804 74.8197 10.786 74.8797 10.738C75.4437 10.246 75.9657 9.88 76.4457 9.64C76.9377 9.4 77.4657 9.28 78.0297 9.28C78.9177 9.28 79.6137 9.538 80.1177 10.054C80.6337 10.558 80.8917 11.23 80.8917 12.07V18.622C80.8917 18.874 80.7657 19 80.5137 19H78.8577C78.7377 19 78.6537 18.976 78.6057 18.928C78.5697 18.88 78.5517 18.796 78.5517 18.676V12.484C78.5517 12.016 78.4197 11.656 78.1557 11.404C77.9037 11.14 77.5317 11.008 77.0397 11.008C76.6197 11.008 76.2357 11.104 75.8877 11.296C75.5517 11.488 75.1677 11.8 74.7357 12.232V18.64C74.7357 18.772 74.7057 18.868 74.6457 18.928C74.5857 18.976 74.4777 19 74.3217 19H72.7197Z" fill="#333333"/>
</svg>
